<?xml version="1.0" standalone="no"?>
<!DOCTYPE svg PUBLIC "-//W3C//DTD SVG 20010904//EN"
 "http://www.w3.org/TR/2001/REC-SVG-20010904/DTD/svg10.dtd">
<svg version="1.0" xmlns="http://www.w3.org/2000/svg"
 width="635.000000pt" height="635.000000pt" viewBox="0 0 635.000000 635.000000"
 preserveAspectRatio="xMidYMid meet">
<metadata>
Created by potrace 1.11, written by Peter Selinger 2001-2013
</metadata>
<g transform="translate(0.000000,635.000000) scale(0.100000,-0.100000)"
fill="#000000" stroke="none">
<path d="M3060 6241 c-14 -4 -59 -6 -100 -3 -51 3 -95 -1 -135 -12 -33 -9 -96
-18 -140 -20 -94 -5 -127 -11 -168 -32 -16 -9 -38 -13 -49 -11 -24 7 -107 -14
-173 -44 -27 -12 -70 -24 -95 -26 -26 -2 -74 -18 -112 -38 -37 -19 -75 -38
-85 -43 -10 -6 -40 -15 -68 -21 -27 -7 -72 -26 -100 -43 -49 -31 -65 -39 -177
-92 -31 -15 -75 -44 -98 -63 -23 -20 -68 -48 -99 -63 -31 -15 -81 -49 -111
-77 -30 -27 -66 -56 -80 -63 -40 -21 -118 -92 -147 -132 -14 -21 -32 -38 -40
-38 -21 0 -109 -86 -145 -142 -17 -26 -39 -50 -49 -53 -23 -8 -111 -109 -134
-155 -10 -19 -35 -50 -56 -68 -21 -18 -53 -64 -73 -103 -19 -38 -53 -90 -75
-115 -21 -25 -51 -75 -66 -112 -14 -37 -40 -86 -56 -110 -38 -53 -79 -152 -79
-191 0 -16 -7 -34 -16 -42 -26 -21 -61 -100 -73 -164 -7 -33 -23 -85 -36 -115
-13 -30 -29 -91 -35 -135 -7 -44 -16 -87 -21 -96 -13 -25 -20 -67 -26 -159 -3
-47 -12 -105 -20 -130 -8 -26 -14 -85 -15 -145 -1 -406 1 -487 13 -525 6 -19
15 -78 19 -130 10 -109 15 -135 34 -181 8 -19 14 -54 14 -78 1 -24 14 -78 31
-120 17 -42 35 -103 41 -136 6 -37 26 -86 50 -129 22 -38 40 -80 40 -95 0 -32
26 -88 72 -161 19 -30 40 -72 47 -92 14 -43 79 -145 109 -172 12 -11 22 -25
22 -31 0 -23 52 -106 100 -158 26 -29 56 -70 68 -93 11 -22 52 -70 91 -107 39
-37 71 -71 71 -77 0 -14 87 -101 139 -138 25 -18 52 -46 62 -62 19 -31 80 -80
139 -110 19 -10 58 -41 86 -68 29 -27 80 -64 116 -80 35 -17 75 -43 88 -57 22
-23 157 -95 178 -95 5 0 24 -12 43 -26 44 -34 148 -81 196 -90 21 -3 45 -12
53 -19 32 -27 98 -54 160 -65 36 -7 74 -18 85 -25 27 -16 119 -42 180 -49 28
-3 75 -16 105 -27 97 -37 388 -56 795 -50 50 0 115 6 145 11 30 6 91 13 135
14 57 3 97 11 140 29 33 13 80 25 105 25 25 1 77 13 115 28 39 14 98 32 131
40 59 13 140 45 194 78 14 8 41 17 61 21 20 3 74 28 120 56 46 27 95 53 109
56 31 8 111 56 165 99 22 17 57 37 79 44 22 7 66 38 103 74 36 33 80 68 99 78
50 24 105 70 139 117 17 22 42 45 58 52 29 12 132 118 149 153 5 12 27 33 49
49 22 15 63 63 94 110 29 45 74 102 99 126 28 27 53 65 67 100 12 31 37 72 55
91 18 19 49 71 69 115 20 44 41 87 46 95 57 94 71 122 84 165 8 28 31 82 50
120 20 39 41 97 47 130 6 33 22 84 35 112 13 29 29 90 35 135 6 46 20 101 30
122 21 42 38 188 45 381 2 61 8 133 13 160 9 46 8 65 -12 195 -1 8 1 35 5 60
5 28 2 69 -6 109 -8 35 -15 99 -16 142 -1 54 -10 102 -27 151 -14 40 -26 96
-28 123 -2 28 -16 82 -30 120 -15 39 -33 97 -41 131 -7 34 -32 98 -54 142 -23
45 -41 91 -41 102 0 24 -52 131 -85 175 -13 17 -26 41 -30 55 -14 46 -47 104
-90 160 -23 30 -46 66 -50 80 -10 32 -63 105 -109 149 -20 19 -36 40 -36 47 0
22 -86 129 -128 158 -23 16 -42 34 -42 41 0 19 -109 128 -152 154 -21 13 -38
27 -38 31 0 20 -65 81 -128 121 -37 23 -87 61 -112 84 -25 24 -74 58 -110 76
-36 18 -84 50 -108 70 -24 21 -78 52 -120 70 -42 17 -90 42 -107 55 -44 33
-136 74 -167 74 -15 0 -53 16 -83 36 -37 23 -84 41 -138 53 -45 11 -103 28
-128 40 -26 11 -82 26 -125 32 -43 6 -87 15 -97 21 -24 12 -46 16 -167 27 -52
5 -111 14 -130 20 -19 7 -78 12 -130 12 -52 0 -135 2 -185 4 -49 2 -101 0
-115 -4z m210 -80 c23 -19 48 -57 77 -119 l42 -92 -55 0 c-30 0 -67 6 -82 14
-31 16 -70 64 -97 116 -9 19 -28 49 -41 67 -29 39 -29 40 -1 46 50 11 122 -4
157 -32z m-284 10 c41 -19 83 -64 103 -111 6 -14 22 -42 36 -62 l25 -37 -36
-7 c-47 -9 -103 1 -134 24 -14 11 -53 58 -87 105 l-63 87 28 6 c15 3 32 7 37
9 23 8 53 3 91 -14z m506 -7 c31 -16 78 -63 78 -79 0 -5 13 -45 29 -87 l29
-78 -42 0 c-22 0 -59 9 -81 19 -36 16 -46 30 -94 125 -45 88 -52 109 -40 116
17 11 84 2 121 -16z m-749 -28 c38 -16 69 -50 120 -129 l37 -57 -27 -11 c-16
-6 -50 -9 -78 -6 -48 4 -53 8 -132 93 -46 49 -81 93 -80 99 8 24 111 32 160
11z m1010 -13 c41 -25 60 -60 90 -166 l25 -89 -36 7 c-101 18 -110 24 -147 98
-19 38 -35 76 -35 84 0 7 -9 32 -21 55 l-21 41 56 -6 c31 -3 71 -14 89 -24z
m227 -46 c51 -25 77 -70 90 -157 6 -41 15 -85 20 -97 9 -21 7 -22 -29 -19 -51
5 -98 31 -115 64 -11 23 -76 222 -76 235 0 8 75 -9 110 -26z m-1474 7 c19 -9
51 -37 71 -63 20 -25 50 -60 66 -78 l29 -31 -57 -12 c-85 -18 -115 -6 -211 80
-45 41 -81 79 -80 84 3 14 66 34 109 35 22 1 54 -6 73 -15z m1674 -68 c25 -3
46 -17 77 -51 44 -48 47 -58 57 -192 5 -74 1 -76 -75 -38 -41 21 -54 35 -70
72 -11 26 -22 73 -25 105 -2 32 -9 69 -14 84 -13 32 -13 34 3 29 6 -2 28 -6
47 -9z m-1907 -7 c12 -6 52 -42 88 -80 l66 -68 -50 -21 c-79 -34 -116 -20
-256 99 l-54 46 39 17 c44 20 134 24 167 7z m-237 -92 c18 -7 62 -40 98 -73
l66 -61 -49 -22 c-69 -29 -128 -25 -166 12 -7 7 -45 33 -84 56 -39 24 -71 45
-71 47 0 2 11 11 25 20 49 32 128 41 181 21z m2414 -12 c64 -33 90 -94 90
-215 0 -49 -4 -90 -9 -90 -22 0 -61 21 -94 50 -39 33 -48 64 -65 208 l-8 73
30 -7 c17 -3 42 -12 56 -19z m-1213 0 c39 -17 118 -19 176 -6 21 5 37 5 37 0
0 -16 110 -41 168 -38 43 2 67 -2 99 -19 32 -17 59 -22 114 -22 62 0 77 -4
107 -26 36 -28 108 -54 151 -54 14 0 35 -6 47 -13 74 -43 128 -68 170 -78 27
-6 60 -22 74 -34 29 -27 113 -71 152 -80 14 -4 46 -26 70 -49 24 -23 66 -50
93 -60 33 -12 66 -36 95 -68 25 -26 68 -61 96 -76 29 -15 66 -46 85 -72 19
-25 62 -63 96 -85 34 -22 62 -47 62 -56 1 -23 54 -87 101 -122 26 -18 50 -49
66 -83 14 -30 50 -78 80 -107 30 -28 54 -60 54 -70 0 -27 27 -74 69 -121 22
-24 44 -64 54 -97 9 -31 35 -81 57 -113 22 -31 40 -67 40 -79 1 -31 22 -87 55
-143 19 -31 30 -66 31 -96 2 -29 15 -72 37 -115 26 -53 34 -82 35 -124 0 -30
10 -83 22 -118 15 -46 19 -75 14 -107 -4 -31 0 -63 16 -115 18 -61 20 -78 11
-121 -9 -38 -8 -65 4 -120 13 -64 13 -76 -2 -121 -13 -41 -15 -63 -6 -121 8
-64 7 -75 -11 -105 -15 -26 -20 -54 -21 -120 -1 -58 -8 -99 -20 -126 -10 -22
-20 -71 -23 -109 -4 -54 -12 -80 -38 -124 -28 -46 -34 -66 -34 -112 0 -47 -4
-60 -24 -79 -29 -27 -64 -105 -71 -156 -2 -21 -17 -51 -34 -71 -35 -40 -52
-71 -71 -134 -8 -26 -27 -56 -45 -72 -17 -15 -47 -57 -65 -95 -19 -39 -57 -92
-88 -123 -29 -30 -65 -76 -78 -102 -13 -27 -29 -48 -34 -48 -18 0 -84 -66
-118 -118 -21 -33 -46 -59 -65 -67 -38 -16 -98 -72 -123 -115 -10 -16 -26 -30
-35 -30 -22 0 -96 -54 -145 -106 -27 -29 -49 -44 -65 -44 -29 0 -103 -45 -138
-84 -14 -14 -29 -26 -35 -26 -33 0 -94 -26 -149 -64 -40 -27 -78 -45 -105 -48
-24 -4 -70 -22 -103 -42 -38 -23 -73 -36 -95 -36 -43 0 -140 -33 -177 -60 -20
-15 -36 -19 -60 -15 -31 6 -142 -15 -169 -31 -7 -5 -51 -9 -98 -10 -50 -1
-103 -8 -127 -17 -35 -13 -52 -14 -96 -5 -44 9 -65 8 -119 -5 -61 -15 -69 -15
-105 -1 -29 13 -57 15 -118 11 -64 -4 -92 -1 -140 15 -40 13 -80 19 -120 17
-42 -2 -72 3 -100 16 -22 10 -73 20 -115 23 -52 3 -81 10 -95 22 -32 28 -63
41 -108 46 -68 7 -90 14 -123 39 -40 31 -89 50 -146 59 -27 4 -53 15 -64 28
-30 33 -89 66 -140 79 -32 8 -57 24 -79 48 -18 20 -63 51 -100 70 -37 19 -84
52 -104 74 -38 42 -107 90 -129 90 -8 0 -24 16 -37 36 -27 43 -65 79 -123 116
-23 15 -42 32 -42 37 0 22 -63 99 -108 132 -36 26 -52 46 -63 78 -8 26 -34 63
-67 96 -29 29 -58 67 -64 85 -15 42 -48 94 -87 136 -17 18 -31 41 -31 50 0 24
-53 132 -83 167 -15 18 -27 43 -27 58 0 33 -35 127 -59 158 -10 13 -20 46 -23
73 -3 28 -17 78 -33 110 -20 43 -28 78 -30 125 -2 44 -11 84 -29 123 -21 49
-25 68 -20 115 4 42 0 74 -14 120 -18 55 -19 72 -10 116 9 40 8 65 -4 117 -12
57 -12 71 0 105 9 27 12 64 9 119 -4 64 -1 92 15 140 14 43 19 77 16 120 -4
48 0 66 19 100 18 31 23 55 23 111 0 49 4 75 14 83 22 18 53 100 66 171 6 36
20 74 30 85 27 30 49 78 60 133 7 29 27 70 50 100 21 29 46 75 55 104 11 34
33 69 61 98 23 25 52 69 64 99 14 36 36 68 65 93 24 21 58 62 74 91 17 29 49
68 71 86 23 18 58 56 77 83 20 27 62 67 95 89 32 22 74 62 93 88 25 35 46 51
76 61 26 9 66 37 102 72 33 32 67 58 75 58 19 0 76 34 132 81 25 20 60 40 79
44 36 8 122 55 156 85 11 9 40 20 64 23 25 3 77 21 115 41 39 19 93 37 121 41
27 4 72 19 100 33 37 19 67 26 116 28 48 1 83 9 124 28 47 21 66 25 113 20 42
-4 74 0 120 14 54 17 72 19 120 10 49 -9 128 1 180 21 1 1 19 -6 39 -14z
m-1392 -119 c22 -14 62 -41 88 -58 l48 -32 -46 -28 c-75 -47 -89 -46 -206 12
-139 70 -137 68 -94 97 19 13 45 28 57 33 39 17 110 6 153 -24z m2814 9 c78
-43 89 -67 90 -206 1 -65 -1 -119 -5 -119 -25 0 -105 57 -117 84 -14 30 -32
266 -20 266 3 0 26 -11 52 -25z m-3039 -133 c14 -9 53 -31 87 -48 l62 -32 -54
-37 c-47 -33 -60 -37 -97 -33 -24 3 -77 21 -118 40 -41 19 -83 38 -92 41 -27
9 -22 22 21 51 69 48 135 55 191 18z m3286 -29 c40 -30 59 -87 50 -150 -4 -26
-10 -72 -13 -101 -3 -29 -9 -54 -13 -57 -12 -7 -98 62 -105 85 -3 10 -5 77 -3
149 l2 129 26 -16 c14 -9 39 -27 56 -39z m-3427 -143 c51 -25 80 -44 75 -51
-15 -24 -99 -69 -130 -69 -18 0 -75 14 -126 30 -51 17 -98 30 -106 30 -18 0
34 67 67 85 14 8 51 14 82 15 44 0 71 -8 138 -40z m3615 6 c29 -21 66 -92 66
-127 0 -18 -40 -200 -46 -208 -2 -2 -21 11 -42 28 -54 43 -66 76 -58 164 18
203 12 191 80 143z m-3822 -159 l98 -33 -28 -31 c-53 -57 -75 -66 -145 -58
-34 3 -95 14 -134 24 l-73 17 32 38 c32 39 97 76 133 75 11 0 64 -14 117 -32z
m4008 -13 c69 -62 75 -141 21 -276 l-27 -68 -37 38 c-54 56 -61 85 -41 173 9
41 19 95 21 122 3 26 9 47 14 47 5 0 27 -16 49 -36z m-4186 -163 l99 -28 -50
-52 c-46 -48 -52 -51 -99 -51 -63 0 -203 25 -216 38 -14 14 74 99 115 111 46
13 43 14 151 -18z m4388 -62 c41 -61 38 -108 -14 -216 -24 -49 -44 -90 -46
-92 -6 -11 -63 67 -73 102 -13 40 -9 60 42 209 22 63 24 65 43 52 11 -7 33
-32 48 -55z m-4534 -127 l83 -18 -30 -42 c-55 -74 -71 -79 -253 -73 l-87 4 14
27 c23 45 67 92 100 106 40 17 73 17 173 -4z m4654 -29 c9 -10 26 -38 38 -62
34 -69 18 -135 -62 -253 -24 -35 -27 -36 -41 -20 -49 56 -58 118 -28 197 32
85 65 155 71 155 4 0 14 -8 22 -17z m-4744 -176 c28 1 28 -1 -10 -64 -21 -34
-42 -56 -61 -63 -30 -10 -257 -14 -257 -5 0 20 45 88 72 108 45 34 60 37 153
30 44 -4 90 -6 103 -6z m4902 -69 c48 -85 43 -127 -27 -232 -32 -47 -61 -86
-65 -86 -16 0 -58 89 -58 124 0 37 29 105 75 172 14 20 25 45 25 55 0 33 19
20 50 -33z m-5017 -167 c-12 -49 -44 -90 -79 -101 -34 -12 -236 -41 -242 -35
-11 11 24 91 53 119 39 39 55 43 182 43 l93 0 -7 -26z m5142 -71 c44 -86 32
-130 -65 -245 -55 -64 -55 -64 -71 -43 -18 24 -39 84 -39 113 0 23 132 235
143 228 4 -2 19 -26 32 -53z m-5245 -132 c0 -33 -48 -106 -81 -123 -16 -9 -77
-26 -134 -39 l-105 -23 6 26 c14 62 26 89 52 114 37 36 75 49 162 57 41 4 81
8 88 8 6 1 12 -8 12 -20z m5358 -163 c5 -66 -8 -92 -94 -178 l-68 -68 -13 25
c-37 71 -24 154 34 215 19 20 49 55 66 79 l31 42 20 -31 c11 -17 22 -55 24
-84z m-5467 -129 c-19 -45 -68 -86 -102 -86 -9 0 -55 -13 -102 -29 l-86 -28 6
31 c9 54 47 120 81 143 18 12 64 26 105 33 39 6 81 15 92 19 29 12 32 -26 6
-83z m5539 -122 c0 -61 -34 -115 -103 -162 -24 -17 -51 -41 -59 -54 -15 -22
-15 -22 -28 17 -19 57 -16 115 7 153 11 18 49 63 84 100 l64 67 17 -35 c10
-19 18 -58 18 -86z m-5595 -61 c-16 -89 -31 -108 -113 -146 -42 -20 -97 -43
-121 -51 l-44 -15 6 55 c10 100 70 156 182 170 28 4 57 10 65 15 27 15 32 9
25 -28z m5641 -129 c8 -68 1 -116 -23 -148 -25 -33 -160 -129 -172 -122 -16
10 -24 111 -11 137 11 24 179 188 192 189 4 0 10 -25 14 -56z m-5689 -124 c-3
-34 -12 -72 -21 -85 -21 -33 -228 -138 -238 -122 -12 18 2 98 24 138 14 26 35
43 67 57 60 26 165 70 170 71 2 1 1 -26 -2 -59z m5727 -162 c1 -55 -3 -69 -29
-105 -19 -26 -49 -52 -80 -67 -27 -14 -64 -34 -82 -46 l-31 -21 -7 53 c-5 36
-2 64 7 85 14 32 84 98 149 139 20 13 40 28 44 34 15 24 29 -11 29 -72z
m-5765 -159 c-11 -28 -77 -78 -149 -114 -19 -9 -45 -26 -56 -37 l-21 -19 -7
41 c-11 69 2 109 53 160 31 31 66 53 108 68 34 13 66 28 70 35 13 20 15 -104
2 -134z m5777 -45 c11 -42 -4 -115 -31 -150 -17 -22 -59 -50 -116 -79 -49 -25
-92 -45 -94 -45 -9 0 -5 99 6 127 12 33 47 64 109 98 25 13 59 35 75 49 38 32
43 32 51 0z m-5769 -154 c-4 -49 -8 -58 -49 -95 -25 -22 -73 -59 -106 -82 -66
-46 -61 -47 -76 20 -8 36 8 97 35 131 12 15 46 40 78 56 31 16 67 38 81 49
l25 20 8 -22 c5 -12 7 -47 4 -77z m5760 -147 c-9 -90 -45 -131 -143 -165 -44
-15 -87 -32 -96 -38 -16 -9 -18 -5 -18 46 0 30 5 64 10 75 13 24 73 63 160
106 92 44 94 44 87 -24z m-5740 -83 l6 -62 -101 -97 -101 -96 -12 48 c-14 60
-7 122 18 156 25 34 166 131 176 121 5 -4 11 -36 14 -70z m5686 -238 c-21 -43
-70 -78 -127 -92 -23 -5 -60 -16 -84 -24 -23 -7 -44 -11 -46 -7 -11 18 17 108
42 134 31 33 86 64 127 71 15 3 43 14 63 24 l37 19 3 -44 c2 -28 -4 -58 -15
-81z m-5659 63 c12 -32 17 -111 8 -135 -5 -13 -45 -63 -88 -111 l-79 -87 -17
37 c-21 47 -22 114 -2 157 9 19 42 55 73 78 31 24 63 51 70 60 17 20 27 20 35
1z m5631 -227 c-9 -57 -49 -124 -84 -143 -16 -8 -62 -20 -102 -26 -41 -6 -83
-15 -95 -19 -20 -8 -21 -6 -14 23 13 58 38 105 62 118 12 8 70 30 128 50 58
20 107 37 108 38 2 0 1 -18 -3 -41z m-5546 -106 c1 -13 -4 -33 -10 -45 -16
-31 -142 -197 -150 -197 -17 0 -37 69 -37 124 0 72 9 90 92 171 l61 60 22 -45
c12 -25 22 -55 22 -68z m5466 -157 c-27 -92 -72 -130 -164 -140 -31 -3 -77 -8
-103 -11 l-47 -5 19 57 c11 31 25 63 31 70 14 18 123 51 170 52 19 1 46 6 60
11 46 18 49 15 34 -34z m-5403 -11 c27 -63 20 -108 -33 -191 -23 -38 -45 -70
-49 -73 -4 -3 -13 -16 -20 -29 l-13 -25 -18 23 c-27 33 -42 98 -34 147 5 33
21 61 68 118 34 42 66 76 70 76 4 0 17 -21 29 -46z m104 -238 c13 -28 24 -57
24 -65 0 -8 -27 -67 -59 -132 l-60 -118 -32 50 c-57 89 -47 170 31 254 15 17
33 40 39 53 16 30 28 21 57 -42z m5209 44 c12 -19 -36 -99 -78 -132 -40 -32
-43 -33 -149 -34 -59 -1 -108 0 -108 3 0 13 51 101 66 114 25 22 51 29 158 44
50 7 94 13 98 14 4 0 10 -4 13 -9z m-5118 -207 c29 -38 53 -94 53 -126 0 -18
-17 -69 -39 -112 -21 -44 -42 -91 -46 -105 l-8 -24 -24 29 c-32 40 -49 73 -58
114 -6 29 0 49 46 138 30 56 56 103 58 103 2 0 10 -8 18 -17z m4992 -60 c-13
-21 -28 -46 -33 -56 -6 -10 -26 -27 -44 -39 -28 -17 -46 -20 -140 -17 -59 1
-110 4 -114 6 -10 5 24 72 51 100 12 12 38 25 58 28 21 4 43 8 48 10 6 2 52 4
103 4 l94 1 -23 -37z m-4830 -180 c37 -56 39 -90 10 -176 -23 -68 -23 -68 -34
-114 -4 -18 -11 -33 -15 -33 -18 0 -79 82 -86 114 -10 58 3 126 36 179 16 26
30 54 30 61 0 16 11 27 20 21 5 -3 22 -26 39 -52z m4639 -3 l72 0 -20 -37
c-45 -85 -86 -109 -174 -99 -34 4 -85 10 -113 13 -29 3 -53 10 -53 14 0 14 47
86 62 95 21 13 81 23 118 18 19 -2 68 -4 108 -4z m-4475 -197 c17 -21 22 -41
22 -83 -1 -64 -35 -230 -48 -230 -22 0 -86 79 -97 119 -10 40 -9 53 19 140 17
53 31 102 31 110 0 16 42 -16 73 -56z m4307 -4 c8 0 32 -3 52 -5 l38 -6 -32
-45 c-37 -51 -48 -59 -110 -72 -30 -7 -57 -7 -83 0 -20 6 -47 12 -59 15 -50 9
-82 17 -89 21 -11 6 52 83 77 94 12 5 59 7 106 4 47 -3 92 -6 100 -6z m-4125
-183 c28 -36 33 -104 15 -184 -6 -23 -11 -60 -12 -82 l-1 -39 -29 17 c-16 9
-43 31 -60 49 -28 29 -33 42 -36 96 -2 45 2 79 17 121 12 33 21 68 21 78 0 19
1 18 30 -2 17 -12 41 -36 55 -54z m3900 4 c43 -11 91 -20 107 -20 16 0 28 -5
28 -13 0 -15 -65 -80 -95 -94 -36 -18 -136 -7 -195 21 -30 14 -64 26 -74 26
-17 0 -16 4 10 31 39 43 84 69 115 69 14 0 61 -9 104 -20z m-3755 -122 c69
-47 75 -65 72 -206 -2 -69 -4 -128 -6 -130 -2 -2 -21 8 -43 21 -59 38 -103 97
-103 139 0 33 34 198 41 198 3 0 21 -10 39 -22z m3525 -29 c22 -6 54 -17 70
-25 17 -7 48 -20 70 -27 l40 -14 -40 -37 c-73 -67 -136 -71 -242 -14 -32 17
-68 34 -81 37 -22 6 -20 9 29 49 56 45 82 51 154 31z m-3321 -123 c31 -20 57
-45 64 -62 6 -16 12 -81 14 -145 l3 -117 -47 24 c-70 36 -102 83 -102 152 -1
63 7 182 12 182 2 0 27 -15 56 -34z m3205 -62 c79 -33 88 -39 78 -55 -20 -32
-87 -62 -142 -63 -43 0 -63 6 -121 41 -38 22 -77 45 -87 50 -16 8 -16 11 5 30
34 31 104 52 144 43 19 -4 74 -25 123 -46z m-2998 -60 c38 -19 54 -34 66 -62
16 -37 45 -243 37 -252 -11 -10 -116 54 -137 84 -19 26 -22 45 -23 143 -1 62
0 113 2 113 3 0 27 -11 55 -26z m2731 -49 c34 -20 80 -43 100 -53 21 -9 38
-20 38 -24 0 -3 -23 -20 -50 -37 -54 -33 -112 -41 -153 -20 -31 15 -177 112
-174 115 1 1 22 14 47 28 64 37 113 34 192 -9z m-2494 -66 c49 -21 73 -64 91
-164 6 -33 15 -75 20 -93 8 -27 7 -32 -8 -32 -37 0 -87 24 -123 58 -40 38 -52
77 -61 200 -6 71 -8 70 81 31z m2215 -14 c18 -8 60 -34 93 -57 34 -24 70 -48
80 -54 17 -10 15 -13 -21 -36 -83 -54 -151 -45 -230 28 -27 25 -59 53 -72 61
-19 13 -21 18 -11 31 33 39 107 52 161 27z m-1976 -75 c47 -20 64 -47 83 -130
7 -30 21 -75 32 -99 10 -24 17 -45 15 -47 -7 -7 -106 23 -132 40 -36 24 -63
72 -70 126 -4 25 -12 66 -20 92 l-13 47 32 -6 c17 -3 50 -14 73 -23z m1824
-70 c52 -39 94 -76 94 -83 0 -15 -81 -46 -125 -46 -45 -1 -79 21 -162 102
l-66 66 35 14 c19 7 56 14 83 16 45 2 53 -2 141 -69z m-1579 3 c37 -15 43 -23
92 -133 8 -19 22 -55 30 -78 l14 -44 -57 5 c-60 4 -100 24 -124 60 -19 31 -37
85 -43 131 -3 22 -9 47 -15 57 -5 10 -9 20 -9 24 0 8 68 -5 112 -22z m1259
-16 c21 -12 69 -52 107 -89 l71 -67 -45 -17 c-53 -20 -133 -14 -167 13 -13 10
-49 48 -80 86 -56 65 -57 67 -35 76 69 26 105 26 149 -2z m-977 -51 c17 -18
44 -64 59 -101 16 -37 37 -77 48 -88 19 -21 19 -21 -3 -30 -32 -12 -124 11
-158 39 -18 16 -40 54 -61 107 -17 45 -34 88 -36 95 -4 9 11 12 57 12 58 0 65
-2 94 -34z m728 14 c43 -34 171 -180 164 -188 -4 -3 -43 -8 -87 -9 -76 -2 -81
-1 -115 29 -19 17 -47 52 -61 77 -14 25 -35 56 -46 68 -16 18 -17 23 -6 27 8
2 21 7 29 9 37 13 98 6 122 -13z m-476 -46 c25 -26 54 -65 66 -88 11 -23 31
-55 44 -72 l23 -32 -42 -6 c-113 -16 -186 37 -223 161 -8 29 -20 55 -25 58
-24 15 -4 25 51 25 59 0 62 -1 106 -46z m247 8 c48 -47 138 -180 126 -187 -20
-13 -115 -8 -151 8 -27 11 -47 32 -75 78 -21 34 -48 76 -60 95 l-22 33 22 5
c12 2 46 3 75 2 44 -2 58 -8 85 -34z"/>
<path d="M3595 5701 c-3 -6 -29 -9 -59 -8 -64 2 -86 -13 -86 -59 0 -32 2 -34
32 -34 27 0 30 -2 16 -12 -29 -23 -27 -68 3 -68 12 0 19 -5 16 -12 -2 -8 -16
-12 -32 -10 -41 5 -68 -4 -82 -27 -10 -16 -9 -24 9 -46 l21 -27 -34 7 c-70 17
-119 1 -119 -36 0 -34 44 -51 162 -60 115 -9 178 -23 178 -40 0 -13 -30 -11
-124 7 -90 18 -131 12 -150 -20 -16 -26 23 -49 87 -51 29 -1 71 -7 95 -14 l42
-12 0 -60 c0 -60 0 -60 28 -57 22 2 29 11 41 46 10 33 17 42 30 37 41 -16 129
-35 162 -35 70 0 55 61 -19 75 -49 9 -132 45 -132 57 0 5 8 7 18 4 9 -3 32 -8
51 -11 36 -6 87 -29 112 -51 8 -8 40 -22 71 -33 51 -18 56 -18 82 -2 15 9 30
27 33 40 9 37 -32 66 -122 86 -45 10 -79 23 -82 31 -8 22 0 25 36 13 29 -10
35 -9 54 9 20 20 20 22 4 40 -9 10 -17 23 -17 29 0 6 -7 16 -15 23 -13 11 -13
15 0 33 8 12 15 29 15 39 0 12 7 17 22 15 16 -1 23 5 29 26 7 26 4 31 -36 55
-29 18 -45 35 -47 51 -2 13 -11 29 -21 35 -14 9 -21 6 -41 -19 -23 -29 -25
-29 -58 -17 -18 8 -47 17 -64 22 -44 10 -54 18 -47 35 4 11 -3 15 -25 15 -17
0 -33 -4 -37 -9z m140 -136 l30 -14 -35 6 c-19 3 -44 10 -55 14 -18 7 -17 8 5
8 14 0 39 -6 55 -14z m175 -51 c0 -2 -7 -4 -15 -4 -8 0 -15 4 -15 10 0 5 7 7
15 4 8 -4 15 -8 15 -10z m-250 -44 c0 -17 -7 -46 -14 -65 -14 -32 -19 -35 -55
-35 -46 0 -55 14 -16 24 36 9 53 50 32 74 -24 27 -21 32 18 32 32 0 35 -2 35
-30z m134 0 c33 -12 33 -27 0 -42 -21 -10 -25 -17 -22 -47 3 -31 0 -36 -21
-39 -35 -5 -44 10 -32 54 9 35 36 84 46 84 2 0 15 -4 29 -10z"/>
<path d="M2383 5618 c-31 -15 -36 -39 -18 -89 17 -52 16 -54 -83 -101 -64 -31
-102 -67 -102 -98 0 -20 54 -70 75 -70 7 0 19 7 26 17 28 33 111 93 130 93 16
0 19 -7 19 -49 0 -96 -56 -192 -120 -205 -38 -7 -46 -37 -25 -93 17 -45 18
-45 56 -40 79 10 132 65 144 149 3 18 8 66 11 106 4 40 11 75 15 78 7 4 83
-39 99 -56 3 -3 38 -24 79 -48 89 -51 155 -57 212 -19 33 22 83 102 73 118 -2
4 -32 8 -67 8 -107 0 -357 75 -357 107 0 8 28 19 75 29 75 17 96 29 115 66 8
14 6 28 -6 55 -16 33 -19 35 -53 30 -20 -4 -71 -24 -114 -46 -43 -22 -85 -40
-92 -40 -8 0 -17 15 -20 38 -11 67 -28 81 -72 60z"/>
<path d="M4558 5248 c-8 -7 -18 -27 -21 -45 -7 -38 12 -63 48 -63 13 0 27 -4
30 -10 10 -17 61 -11 78 8 26 29 21 61 -10 73 -16 6 -45 19 -65 30 -44 23 -40
22 -60 7z"/>
<path d="M1464 5104 c-31 -40 -25 -66 15 -72 12 -2 27 -14 33 -27 6 -15 21
-25 37 -27 19 -2 28 -11 34 -34 8 -29 3 -38 -79 -142 -49 -61 -90 -109 -92
-107 -2 2 2 21 8 43 9 29 9 44 1 60 -13 24 -37 20 -46 -9 -4 -10 -10 -19 -15
-19 -6 0 -5 12 1 27 8 22 7 30 -7 40 -11 8 -22 9 -35 3 -25 -14 -27 -13 -21
15 3 20 -1 27 -23 35 -35 13 -51 1 -65 -50 -13 -49 -6 -67 40 -90 21 -11 50
-33 66 -50 16 -16 39 -30 51 -30 32 0 28 -15 -12 -46 -25 -19 -35 -34 -35 -54
0 -30 15 -40 59 -40 33 0 118 -54 126 -81 7 -22 37 -25 53 -6 26 30 -7 84 -75
124 -24 14 -43 30 -43 36 0 7 19 36 43 65 l42 52 5 -32 c7 -49 43 -51 71 -4
25 43 39 46 39 9 0 -18 -13 -41 -41 -69 -49 -50 -47 -74 4 -74 30 0 39 7 80
65 31 43 54 65 67 65 33 0 23 -28 -30 -84 -55 -58 -60 -72 -30 -81 35 -11 111
43 139 99 l24 47 -22 39 c-28 50 -27 56 14 94 39 37 43 56 19 81 -23 23 -47
15 -64 -22 -8 -18 -18 -33 -22 -33 -4 0 -14 16 -22 35 -10 23 -22 35 -35 35
-26 0 -74 -42 -112 -96 -16 -24 -35 -44 -40 -44 -6 0 0 15 12 33 27 38 120
149 134 159 22 16 66 8 87 -17 26 -30 49 -32 71 -7 25 27 22 36 -28 86 -25 26
-45 53 -45 61 0 34 -76 6 -111 -40 l-26 -34 -32 49 c-18 28 -38 50 -46 50 -7
0 -20 11 -29 25 -24 37 -59 33 -92 -11z m246 -334 c0 -13 -48 -36 -56 -27 -4
4 -1 13 6 22 14 17 50 20 50 5z"/>
<path d="M4447 5134 c-4 -4 -7 -24 -7 -45 0 -46 18 -59 72 -52 23 4 38 2 38
-5 0 -11 55 13 65 28 11 18 -8 36 -58 53 -69 24 -100 30 -110 21z"/>
<path d="M4804 5046 c-3 -14 -3 -30 1 -35 3 -7 -2 -11 -14 -11 -30 0 -53 -27
-41 -50 18 -33 11 -40 -22 -20 -88 52 -89 53 -105 37 -23 -22 -8 -73 28 -94
49 -29 39 -38 -70 -64 -67 -15 -79 -16 -110 -3 -30 13 -37 12 -58 -1 -33 -22
-29 -52 13 -92 35 -32 40 -34 85 -28 60 8 99 -13 153 -82 40 -51 42 -59 21
-87 -20 -27 -19 -49 4 -70 20 -18 61 -14 61 6 0 13 78 123 119 166 37 40 52
35 96 -32 22 -34 40 -49 68 -58 47 -14 68 2 70 53 2 28 -2 35 -20 37 -23 3
-194 182 -175 182 6 0 24 -16 39 -35 20 -25 36 -35 56 -35 23 0 27 4 27 30 0
17 5 30 10 30 6 0 10 -4 10 -10 0 -11 30 -13 54 -4 28 11 17 42 -29 88 -24 25
-47 56 -50 70 -17 85 -13 79 -52 73 -40 -7 -78 12 -86 43 -4 15 -14 20 -41 20
-29 0 -37 -4 -42 -24z m96 -119 c0 -20 -45 1 -68 31 l-26 34 47 -28 c26 -16
47 -33 47 -37z m-79 -37 c32 -26 3 -27 -31 0 -19 15 -21 20 -9 20 9 0 27 -9
40 -20z m173 -50 c38 -39 16 -39 -26 0 -21 18 -27 29 -18 29 8 0 28 -13 44
-29z m-175 -55 c22 -24 41 -49 41 -55 0 -18 -29 -11 -40 10 -6 11 -26 27 -45
35 -33 13 -44 33 -28 48 14 15 32 5 72 -38z m-124 -45 c7 -11 -42 -37 -51 -27
-4 3 -4 13 -1 22 7 17 42 21 52 5z m99 -82 c8 -14 7 -22 -7 -35 -16 -16 -18
-16 -38 4 -26 26 -19 56 12 51 12 -2 27 -11 33 -20z"/>
<path d="M1377 5024 c-4 -4 -7 -17 -7 -30 0 -16 -9 -25 -30 -33 -43 -14 -41
-48 3 -56 20 -4 37 -15 42 -28 6 -12 20 -23 32 -25 13 -2 29 -12 37 -24 20
-28 50 -20 54 15 2 19 11 29 27 33 42 11 44 54 2 54 -12 0 -28 9 -34 19 -7 11
-22 21 -35 23 -14 2 -24 12 -28 28 -4 17 -14 26 -31 28 -14 2 -28 0 -32 -4z
m83 -109 c0 -8 -7 -15 -15 -15 -8 0 -15 7 -15 15 0 8 7 15 15 15 8 0 15 -7 15
-15z"/>
<path d="M4327 5002 c-31 -33 -34 -62 -9 -85 23 -21 42 -21 68 -2 10 8 40 15
66 15 35 0 52 5 68 22 24 26 18 35 -30 43 -19 3 -48 13 -64 21 -43 21 -69 17
-99 -14z"/>
<path d="M3040 4980 c-129 -12 -239 -29 -257 -39 -10 -5 -41 -11 -68 -14 -28
-2 -65 -12 -82 -21 -18 -9 -42 -16 -55 -16 -13 0 -47 -14 -77 -30 -30 -17 -64
-30 -76 -30 -12 0 -37 -10 -56 -23 -19 -12 -60 -36 -92 -52 -31 -15 -63 -35
-69 -42 -6 -8 -27 -21 -46 -29 -42 -17 -115 -74 -226 -174 -90 -81 -216 -215
-216 -229 0 -4 -13 -22 -30 -39 -16 -17 -41 -52 -55 -79 -14 -26 -39 -66 -55
-88 -16 -22 -32 -52 -35 -67 -4 -15 -12 -32 -20 -38 -8 -6 -21 -34 -30 -61 -9
-28 -28 -69 -41 -93 -13 -24 -25 -56 -25 -72 -1 -16 -10 -47 -20 -69 -10 -22
-21 -62 -25 -90 -3 -27 -11 -58 -16 -68 -47 -91 -47 -636 1 -724 6 -12 11 -34
11 -48 0 -15 12 -56 26 -91 14 -36 23 -71 21 -78 -3 -8 6 -35 20 -61 13 -26
31 -67 38 -91 7 -25 24 -59 38 -77 13 -18 27 -45 31 -62 4 -16 23 -50 42 -76
19 -26 34 -52 34 -58 0 -7 20 -34 45 -60 25 -26 45 -53 45 -59 0 -27 286 -312
313 -312 7 0 30 -18 51 -39 22 -22 53 -45 70 -52 17 -7 42 -22 56 -35 14 -13
52 -35 85 -49 33 -15 67 -33 75 -40 8 -7 33 -18 55 -24 22 -7 56 -21 75 -31
19 -10 55 -21 80 -25 24 -4 54 -14 66 -22 12 -7 50 -18 85 -25 35 -6 69 -14
74 -19 30 -23 533 -44 567 -23 6 4 29 6 50 6 21 -1 66 7 98 18 33 11 72 20 87
20 16 0 45 9 65 19 19 11 54 22 75 24 22 3 62 17 89 31 27 14 56 26 64 26 9 0
36 13 61 28 24 15 58 34 76 41 17 7 47 24 65 38 18 13 47 30 65 38 17 7 52 32
76 54 24 23 49 41 54 41 12 0 248 233 283 279 14 19 39 50 56 70 17 20 39 51
49 70 9 19 30 52 46 74 16 22 29 45 29 51 0 7 15 36 34 65 19 29 38 71 41 92
4 21 16 50 27 65 20 25 26 44 64 194 9 36 20 79 26 95 21 63 50 360 42 422 -4
23 -7 68 -9 100 -3 73 -20 197 -29 212 -4 6 -11 34 -16 63 -15 85 -25 120 -62
213 -12 28 -29 75 -40 105 -11 30 -28 67 -39 82 -11 15 -25 42 -31 60 -6 18
-25 51 -42 73 -18 22 -37 52 -43 67 -7 15 -28 45 -48 66 -19 22 -35 45 -35 51
0 6 -24 36 -52 66 -29 29 -65 66 -79 82 -67 72 -202 183 -279 229 -25 15 -54
35 -65 45 -11 9 -47 30 -80 46 -33 16 -76 39 -95 51 -19 12 -43 22 -52 22 -10
0 -39 11 -65 24 -61 32 -165 65 -223 72 -25 3 -62 11 -83 19 -20 8 -61 15 -90
15 -29 0 -57 4 -62 9 -14 12 -244 20 -335 11z m191 -45 c12 -8 39 -61 50 -97
7 -27 6 -28 -25 -28 -39 0 -56 13 -90 67 -14 23 -30 44 -36 48 -5 3 -10 10
-10 14 0 9 95 5 111 -4z m147 -18 c11 -12 30 -46 41 -74 l21 -53 -23 0 c-53 0
-68 12 -103 81 -18 38 -34 70 -34 72 0 1 18 1 39 -1 24 -2 47 -13 59 -25z
m-295 0 c18 -19 50 -67 65 -99 5 -12 -66 -10 -88 2 -17 9 -90 101 -90 114 0 3
20 6 45 6 35 0 51 -6 68 -23z m-169 -2 c25 -12 86 -90 86 -110 0 -3 -20 -5
-44 -5 -41 0 -48 4 -95 58 -48 54 -49 57 -28 64 35 10 47 9 81 -7z m604 -11
c43 -28 73 -144 37 -144 -33 0 -64 24 -80 64 -29 69 -35 87 -35 98 0 13 46 2
78 -18z m114 -18 c47 -10 57 -28 82 -139 7 -28 6 -29 -26 -22 -18 4 -38 12
-45 19 -17 17 -62 155 -49 151 6 -2 23 -6 38 -9z m-815 -43 c23 -26 43 -51 43
-55 0 -4 -16 -10 -35 -14 -39 -7 -80 14 -130 66 -25 26 -27 33 -15 40 8 5 33
10 54 10 34 0 45 -6 83 -47z m-178 -8 c11 -3 34 -24 51 -45 l32 -40 -27 -10
c-44 -17 -60 -12 -123 39 -58 45 -60 49 -39 58 22 10 71 9 106 -2z m1179 -18
c19 -19 26 -40 31 -91 7 -63 6 -66 -13 -60 -58 17 -78 49 -89 140 -4 39 -3 41
21 38 14 -1 36 -14 50 -27z m-1279 -67 l53 -40 -37 -16 c-20 -8 -42 -14 -48
-12 -20 5 -137 73 -137 79 0 12 45 28 80 28 27 1 49 -9 89 -39z m1392 25 c16
-9 34 -27 39 -41 12 -30 13 -134 3 -134 -5 0 -22 9 -40 19 -26 17 -33 28 -38
68 -3 26 -8 60 -10 76 -5 31 4 33 46 12z m-861 -401 c0 -378 -1 -394 -19 -394
-26 0 -176 -38 -222 -57 -22 -8 -39 -19 -39 -24 0 -5 -5 -9 -11 -9 -7 0 -40
-18 -74 -39 l-62 -39 -276 275 c-276 275 -276 275 -260 300 9 13 30 31 47 40
17 9 48 31 69 49 20 19 43 34 51 34 7 0 34 16 59 35 25 19 52 35 60 35 8 0 38
16 67 35 29 19 64 35 79 35 14 0 37 9 51 20 14 11 38 20 53 20 15 0 47 9 70
21 23 11 60 23 82 25 22 2 51 6 65 9 14 4 50 8 80 10 30 1 66 7 80 13 51 20
50 28 50 -394z m159 390 c11 -11 -33 -34 -63 -34 -17 0 -42 -3 -54 -7 -21 -5
-23 -3 -20 18 2 19 11 26 38 31 36 6 89 2 99 -8z m201 -14 c87 -11 177 -33
222 -53 21 -9 46 -17 57 -17 11 0 41 -11 67 -25 26 -14 55 -25 64 -25 10 0 34
-13 54 -29 21 -17 54 -35 74 -42 20 -6 54 -27 75 -45 20 -19 43 -34 50 -34 7
0 26 -14 43 -31 16 -17 43 -38 59 -46 17 -9 33 -20 36 -25 3 -5 -119 -135
-273 -288 l-279 -279 -37 24 c-20 13 -49 33 -64 45 -15 11 -44 27 -66 34 -22
8 -48 19 -58 24 -20 11 -152 42 -177 42 -13 0 -15 47 -15 388 0 278 3 389 12
395 6 4 29 5 51 1 22 -3 69 -10 105 -14z m-1077 -29 c13 -5 41 -25 62 -44 l38
-35 -37 -12 c-20 -6 -47 -9 -59 -6 -40 10 -129 63 -118 70 59 37 77 41 114 27z
m1741 -43 c16 -22 22 -102 10 -132 -8 -22 -27 -20 -50 5 -14 16 -20 41 -24 99
l-5 78 27 -14 c15 -8 34 -24 42 -36z m-864 7 c0 -31 -3 -35 -37 -44 -87 -21
-103 -22 -103 -3 0 34 27 57 82 68 29 7 54 12 56 13 1 0 2 -15 2 -34z m-987
-51 c18 -9 42 -25 55 -35 l23 -17 -30 -21 c-16 -12 -34 -21 -40 -21 -14 0
-133 49 -144 60 -11 10 53 50 81 50 13 0 37 -7 55 -16z m1964 -18 c24 -20 28
-32 28 -73 -1 -60 -12 -103 -27 -103 -6 0 -22 10 -35 22 -20 19 -23 31 -23
100 0 88 8 96 57 54z m-977 -26 c0 -35 -17 -46 -88 -56 -47 -6 -52 -5 -52 12
0 32 16 46 66 60 70 18 74 18 74 -16z m-1070 -60 c22 -11 40 -24 40 -28 0 -4
-14 -16 -31 -26 -35 -21 -80 -18 -143 9 l-38 16 23 25 c29 31 93 33 149 4z
m2165 -4 c34 -34 39 -66 21 -130 -9 -31 -18 -56 -20 -56 -18 0 -39 17 -52 42
-13 25 -14 40 -4 99 7 38 16 69 21 69 6 0 21 -11 34 -24z m-1099 -61 c-3 -8
-26 -17 -53 -20 -26 -4 -56 -9 -65 -12 -13 -3 -18 1 -18 14 0 34 24 54 80 66
54 12 55 12 58 -11 2 -13 1 -30 -2 -37z m-1138 -50 c6 -6 -60 -55 -74 -55 -8
0 -44 7 -80 16 l-65 17 27 28 c34 35 75 40 139 16 28 -10 51 -20 53 -22z
m2355 -4 c9 -16 17 -40 17 -54 0 -32 -31 -127 -41 -127 -15 0 -49 53 -49 76 0
43 32 143 44 138 7 -3 20 -18 29 -33z m-1213 -10 c0 -38 -14 -48 -82 -56 -53
-7 -58 -6 -58 11 0 33 16 46 71 59 30 7 57 14 62 14 4 1 7 -12 7 -28z m-1297
-67 c42 -14 46 -18 36 -36 -18 -34 -62 -46 -132 -35 -34 5 -63 10 -65 12 -7 7
22 43 47 58 33 21 56 21 114 1z m106 -79 c-29 -40 -35 -44 -48 -31 -13 13 -12
20 9 59 13 24 33 48 44 53 35 15 32 -29 -5 -81z m1184 14 c-11 -11 -123 -32
-130 -25 -3 3 -2 17 1 31 7 27 25 37 91 51 39 9 40 8 43 -20 2 -16 0 -32 -5
-37z m1076 44 c43 -31 58 -61 35 -70 -18 -7 -47 8 -87 43 -24 20 -27 27 -17
39 17 20 24 19 69 -12z m258 -55 c4 -34 0 -55 -19 -92 l-24 -48 -28 32 c-29
35 -29 34 7 133 20 58 20 58 40 39 11 -11 21 -39 24 -64z m-2417 -9 c0 -10 -5
-21 -10 -24 -6 -4 -20 -24 -31 -47 -20 -39 -21 -39 -40 -22 -26 23 -24 37 14
100 32 53 32 53 50 33 9 -12 17 -29 17 -40z m2126 -6 c24 -16 43 -31 44 -35 0
-4 -11 -15 -25 -24 -25 -16 -27 -16 -81 21 -43 30 -52 40 -43 51 18 22 57 16
105 -13z m-2056 -59 c0 -8 -15 -37 -34 -64 l-34 -50 -21 26 -21 27 21 31 c11
17 28 43 37 59 l17 27 18 -21 c9 -12 17 -28 17 -35z m1020 27 c0 -16 -6 -33
-12 -39 -16 -12 -109 -32 -120 -26 -14 9 -9 41 8 55 14 11 75 31 117 38 4 0 7
-12 7 -28z m-1366 3 c22 -8 20 -17 -10 -48 -24 -24 -34 -26 -105 -26 -44 0
-79 2 -79 5 0 14 42 71 57 77 19 8 109 3 137 -8z m364 -259 l276 -274 -17 -33
c-10 -18 -33 -57 -52 -86 -32 -51 -70 -152 -95 -257 l-12 -50 -386 1 -386 0
-8 30 c-5 19 -2 43 8 71 10 26 14 57 11 78 -4 24 -1 40 9 50 9 8 18 41 21 73
3 31 11 66 18 77 6 11 15 38 19 60 4 22 18 56 31 75 13 19 26 51 30 70 4 19
15 44 24 55 10 11 24 36 31 55 7 19 22 43 32 53 10 10 29 40 43 67 14 27 33
54 43 59 10 5 28 30 41 55 12 25 27 46 33 46 5 0 134 -124 286 -275z m2209
202 c8 -18 29 -48 45 -67 44 -52 95 -135 108 -174 6 -19 20 -47 32 -61 11 -14
25 -45 30 -67 5 -23 18 -53 28 -69 11 -15 20 -37 20 -49 0 -12 9 -42 19 -68
11 -26 22 -70 24 -99 3 -28 10 -60 15 -69 5 -10 7 -34 5 -54 -3 -21 2 -52 11
-74 9 -22 14 -41 11 -44 -6 -6 -764 -9 -782 -4 -7 2 -15 20 -18 40 -13 86 -64
229 -97 272 -10 14 -30 42 -44 63 -24 37 -24 39 -7 61 10 12 133 137 273 277
l255 256 28 -19 c15 -11 35 -34 44 -51z m-264 29 c15 -14 36 -27 47 -31 25 -8
26 -21 1 -35 -30 -16 -47 -12 -96 19 l-47 29 21 21 c27 27 42 26 74 -3z m461
-1 c24 -36 20 -88 -11 -140 -16 -25 -31 -45 -35 -45 -10 0 -38 55 -38 76 0 20
52 133 61 134 4 0 14 -11 23 -25z m-2354 -65 c0 -13 -38 -76 -66 -109 -8 -9
-34 23 -34 43 0 20 28 74 53 101 10 11 15 10 30 -2 9 -9 17 -24 17 -33z m950
-10 c0 -33 -10 -39 -87 -57 -46 -11 -53 -9 -53 17 0 30 24 50 70 59 69 14 70
13 70 -19z m896 -2 c47 -33 52 -42 32 -55 -28 -16 -51 -12 -94 19 -48 34 -50
38 -32 56 20 20 47 14 94 -20z m-2326 -15 c0 -13 -13 -27 -44 -51 -23 -17 -42
-22 -92 -22 -35 0 -64 2 -64 5 0 14 31 64 42 68 21 8 158 8 158 0z m530 -12
c5 -11 10 -26 10 -35 0 -17 -52 -105 -62 -106 -4 0 -15 11 -24 25 -15 23 -14
27 18 79 18 31 36 56 40 56 4 0 12 -9 18 -19z m2389 -35 c12 -18 21 -40 21
-48 0 -8 -19 -43 -42 -77 -41 -61 -42 -62 -54 -39 -25 45 -8 128 38 186 14 16
14 17 37 -22z m-648 -16 l40 -28 -23 -16 c-31 -22 -41 -20 -93 16 -50 35 -53
42 -27 57 23 15 56 6 103 -29z m-841 -10 l0 -30 -65 0 c-92 0 -88 22 9 45 28
7 52 13 54 14 1 1 2 -12 2 -29z m-820 -41 c0 -8 -14 -37 -30 -63 -30 -47 -32
-48 -50 -31 -20 18 -28 65 -12 65 4 0 21 21 37 46 28 45 29 45 41 22 8 -13 13
-30 14 -39z m1574 -1 c28 -17 53 -33 55 -35 11 -8 -29 -35 -51 -35 -23 0 -108
49 -108 63 0 8 40 39 49 39 2 0 27 -14 55 -32z m-2264 -19 c0 -17 -57 -69 -77
-70 -10 0 -42 -4 -70 -8 -29 -4 -53 -6 -53 -3 0 19 37 75 54 82 31 13 146 12
146 -1z m1453 -11 c13 -13 29 -35 35 -50 10 -24 9 -28 -6 -28 -9 0 -22 4 -27
8 -13 9 -65 79 -65 86 0 15 41 4 63 -16z m75 11 c19 -6 34 -21 40 -37 6 -15
13 -35 17 -45 6 -16 4 -18 -15 -15 -15 2 -34 19 -51 48 -39 64 -39 66 9 49z
m-780 -11 c17 -17 15 -63 -5 -79 -9 -8 -24 -27 -33 -42 l-18 -29 -16 23 c-22
31 -21 38 14 92 31 50 39 54 58 35z m610 -5 c11 -10 28 -30 37 -45 17 -28 17
-28 -7 -28 -26 0 -104 71 -92 83 13 12 41 7 62 -10z m291 -19 c20 -25 29 -84
14 -84 -20 1 -38 22 -54 64 -16 44 -16 46 1 46 10 0 28 -12 39 -26z m1428 -31
c3 -13 2 -34 -1 -47 -7 -30 -68 -106 -81 -102 -5 1 -14 19 -19 38 -8 32 -5 43
30 102 35 61 40 65 52 49 7 -10 15 -28 19 -40z m-1791 10 c25 -27 31 -39 21
-45 -22 -14 -36 -9 -78 29 -36 33 -39 38 -22 44 33 14 45 9 79 -28z m914 5
c27 -18 49 -36 49 -41 1 -4 -11 -13 -25 -19 -22 -10 -32 -8 -71 12 -53 28 -64
47 -38 66 26 19 29 18 85 -18z m-464 -2 c15 -11 21 -27 22 -61 2 -43 1 -45
-18 -33 -22 14 -28 27 -40 76 -9 36 2 41 36 18z m-906 -54 c0 -16 -60 -112
-70 -112 -12 0 -30 24 -30 41 0 10 14 41 32 68 30 49 32 50 50 35 10 -10 18
-24 18 -32z m370 26 c36 -26 37 -34 9 -41 -40 -11 -124 37 -97 55 23 14 58 9
88 -14z m630 -18 c21 -21 26 -65 10 -90 -17 -24 -50 23 -50 71 0 44 10 49 40
19z m291 -16 c19 -14 41 -29 49 -34 12 -7 12 -11 1 -24 -20 -24 -56 -20 -100
12 -43 29 -48 41 -29 60 18 18 41 14 79 -14z m-1001 -9 l33 -24 -29 -11 c-25
-10 -36 -8 -71 11 -32 18 -40 26 -31 36 17 21 61 15 98 -12z m512 -10 c14 -8
35 -15 46 -15 11 0 25 -7 32 -15 7 -8 18 -15 25 -15 21 0 106 -50 135 -78 15
-15 46 -44 69 -65 22 -21 41 -42 41 -46 0 -4 14 -17 30 -29 17 -13 30 -27 30
-33 0 -9 15 -46 55 -134 31 -69 48 -167 45 -255 -1 -36 -2 -76 -2 -90 0 -14
-3 -29 -8 -35 -4 -5 -11 -26 -15 -45 -4 -19 -20 -61 -36 -94 -16 -32 -29 -64
-29 -70 0 -7 -9 -21 -21 -32 -12 -10 -27 -30 -34 -44 -20 -37 -140 -150 -160
-150 -7 0 -20 -9 -30 -20 -10 -11 -25 -20 -33 -20 -9 0 -25 -8 -36 -18 -12
-10 -48 -24 -81 -31 -33 -7 -73 -17 -88 -22 -15 -4 -34 -6 -42 -3 -8 4 -27 2
-42 -3 -45 -16 -276 20 -312 48 -13 11 -31 19 -41 19 -9 0 -25 9 -35 20 -10
11 -26 22 -37 26 -11 3 -28 13 -38 22 -10 10 -41 37 -69 62 -28 25 -51 50 -51
56 0 6 -9 19 -20 29 -11 10 -20 24 -20 31 0 7 -11 26 -25 42 -14 17 -25 36
-25 44 0 7 -6 22 -13 33 -50 74 -58 397 -12 485 8 16 15 36 15 45 0 9 11 31
25 49 14 18 25 36 25 39 0 10 44 70 78 106 18 18 32 37 32 42 0 5 6 9 14 9 8
0 23 11 33 24 10 13 28 26 40 30 11 4 28 15 38 26 10 11 25 20 34 20 9 0 25 7
35 15 11 8 26 15 34 15 8 0 28 6 45 14 34 14 122 34 172 39 56 4 200 -13 227
-28z m-1702 13 c0 -25 -40 -78 -62 -82 -13 -2 -44 -8 -70 -14 -40 -8 -48 -7
-48 5 0 12 19 46 46 82 2 2 29 7 61 11 32 4 61 8 66 9 4 0 7 -5 7 -11z m917
-101 c-34 -34 -47 -41 -51 -30 -7 17 6 43 39 79 14 15 25 34 26 43 0 9 7 2 16
-15 15 -31 15 -31 -30 -77z m1074 60 c6 -13 7 -38 2 -60 l-8 -38 -23 21 c-17
16 -22 32 -22 71 0 47 1 49 20 39 12 -6 25 -21 31 -33z m-883 -13 c33 -21 17
-37 -32 -31 -74 8 -95 25 -53 45 24 12 50 7 85 -14z m2086 -5 c13 -68 8 -89
-39 -137 -37 -39 -47 -44 -55 -32 -17 27 -11 76 15 111 14 19 33 46 42 61 23
36 29 35 37 -3z m-1053 -11 l52 -31 -23 -19 c-23 -19 -23 -19 -67 24 -68 67
-49 80 38 26z m-89 -5 c21 -19 23 -55 4 -98 l-12 -30 -18 27 c-13 21 -16 37
-11 72 8 51 11 53 37 29z m-1026 -29 c27 -13 32 -19 23 -30 -12 -14 -66 -17
-107 -6 l-23 7 21 23 c25 26 41 27 86 6z m-1076 -36 c0 -7 -8 -26 -18 -43 -17
-28 -52 -45 -139 -70 -28 -8 -30 12 -8 55 22 42 42 51 158 69 4 0 7 -5 7 -11z
m2180 -39 c0 -35 -16 -79 -29 -79 -18 0 -23 42 -11 86 10 36 15 42 26 33 8 -6
14 -24 14 -40z m-1146 2 c3 -4 -3 -16 -14 -26 -15 -13 -30 -16 -61 -12 -49 6
-56 12 -39 32 14 16 105 22 114 6z m2262 -47 c3 -19 1 -46 -5 -62 -13 -29 -90
-94 -103 -86 -4 3 -8 23 -8 44 0 33 8 49 48 93 26 30 50 52 54 50 4 -2 10 -19
14 -39z m-1046 -38 c0 -6 -11 -29 -24 -51 l-24 -40 -12 27 c-11 22 -9 34 6 73
19 45 19 46 37 24 9 -12 17 -26 17 -33z m-1270 5 c0 -17 -26 -29 -77 -33 -52
-5 -55 -2 -30 30 11 14 107 17 107 3z m-1033 -57 c-12 -35 -21 -42 -78 -65
l-64 -26 -3 29 c-5 48 21 75 90 96 35 10 64 16 66 12 1 -3 -4 -24 -11 -46z
m2337 0 c3 -9 6 -25 6 -36 0 -25 -38 -80 -51 -73 -15 10 -10 61 9 94 19 35 27
38 36 15z m-1354 -22 c0 -22 -30 -40 -72 -45 -46 -4 -47 -4 -36 17 6 11 16 24
22 28 15 10 86 10 86 0z m2403 -36 c14 -41 -7 -78 -68 -119 l-55 -37 0 41 c0
48 21 88 61 115 16 10 29 23 29 27 0 19 24 -1 33 -27z m-1003 -58 c0 -34 -58
-97 -71 -76 -15 23 -10 40 24 83 34 45 47 43 47 -7z m-2409 -20 c-6 -40 -9
-44 -73 -79 l-68 -37 0 38 c0 49 22 74 85 99 28 10 53 19 56 20 3 1 3 -18 0
-41z m979 34 c0 -23 -42 -54 -79 -59 -42 -6 -50 7 -22 40 17 22 101 37 101 19z
m1456 -117 c-8 -32 -65 -73 -76 -54 -10 16 3 44 38 82 22 23 27 25 35 11 5 -8
6 -26 3 -39z m-1495 12 c-11 -28 -37 -46 -78 -53 -22 -4 -24 -2 -18 18 4 13
12 28 19 35 10 10 77 33 84 28 1 -1 -2 -14 -7 -28z m2483 -43 c-3 -18 -13 -39
-22 -47 -18 -14 -90 -57 -98 -57 -2 0 -4 18 -4 41 0 42 -2 40 85 112 30 25 30
25 38 5 4 -12 5 -36 1 -54z m-3431 -7 c8 -20 -17 -79 -38 -91 -11 -6 -39 -23
-62 -38 l-43 -27 0 43 c0 49 28 88 82 111 41 18 55 18 61 2z m927 -57 c-12
-23 -78 -56 -88 -45 -12 12 24 60 58 78 30 14 35 15 38 3 2 -8 -2 -25 -8 -36z
m1527 2 c-3 -19 -15 -32 -45 -48 -42 -22 -42 -22 -42 -2 0 24 67 91 81 82 5
-3 8 -17 6 -32z m-2383 -43 c3 -16 9 -42 12 -59 5 -27 3 -30 -18 -30 -21 0
-25 7 -34 49 -12 58 -2 100 20 81 8 -6 17 -25 20 -41z m81 40 c4 -6 13 -35 20
-66 11 -47 11 -55 -2 -60 -31 -12 -61 14 -68 59 -3 24 -9 51 -11 61 -4 13 1
17 25 17 16 0 33 -5 36 -11z m101 -19 c7 -14 16 -44 22 -67 9 -42 9 -43 -17
-43 -40 0 -50 12 -61 69 -14 73 -14 73 17 69 17 -2 32 -12 39 -28z m92 18 c8
-10 32 -103 32 -123 0 -8 -44 -5 -58 4 -14 8 -31 69 -32 109 0 17 6 22 24 22
13 0 28 -6 34 -12z m89 4 c6 -4 18 -35 26 -70 l14 -62 -27 0 c-37 0 -50 19
-59 84 -7 53 -6 56 13 56 12 0 26 -4 33 -8z m109 -22 c6 -14 14 -44 18 -67 6
-41 5 -43 -18 -43 -32 0 -56 24 -57 58 -1 15 -3 40 -5 55 -3 25 0 28 24 25 17
-2 31 -12 38 -28z m92 13 c5 -10 12 -35 16 -56 4 -21 10 -45 13 -53 7 -19 -50
-19 -66 0 -7 8 -14 40 -17 70 -4 54 -4 56 20 56 14 0 29 -8 34 -17z m98 -13
c7 -14 16 -44 22 -67 9 -42 9 -43 -18 -43 -38 0 -53 22 -60 87 -6 53 -6 54 19
51 15 -2 30 -13 37 -28z m81 -35 c0 -36 -2 -65 -7 -65 -16 0 -27 27 -33 78 -6
49 -5 52 16 52 20 0 22 -5 24 -65z m1713 5 c0 -10 3 -32 6 -49 6 -28 4 -31
-20 -31 -26 0 -26 1 -26 73 l1 72 19 -24 c11 -13 20 -31 20 -41z m78 48 c12
-16 32 -109 26 -120 -7 -10 -36 -10 -52 1 -8 5 -20 36 -27 70 l-13 61 28 0
c15 0 32 -6 38 -12z m97 1 c4 -6 13 -35 20 -66 11 -47 11 -55 -2 -60 -31 -12
-61 14 -68 59 -3 24 -9 51 -11 61 -4 13 1 17 25 17 16 0 33 -5 36 -11z m101
-19 c7 -14 15 -44 19 -67 6 -40 5 -43 -17 -43 -37 0 -47 13 -58 69 -14 73 -14
73 17 69 18 -2 32 -12 39 -28z m90 18 c4 -6 13 -36 20 -65 14 -61 4 -75 -40
-55 -18 8 -25 23 -33 71 l-10 61 28 0 c15 0 31 -5 35 -12z m98 -10 c7 -13 17
-44 21 -70 6 -45 5 -48 -17 -48 -37 0 -47 13 -58 69 -13 72 -14 71 15 71 15 0
30 -9 39 -22z m94 10 c12 -16 32 -109 26 -120 -7 -10 -36 -10 -52 1 -8 5 -20
36 -27 70 l-13 61 28 0 c15 0 32 -6 38 -12z m89 4 c6 -4 18 -36 26 -70 l15
-63 -32 3 c-35 3 -50 27 -60 96 -6 39 -5 42 16 42 13 0 28 -4 35 -8z m91 -35
c13 -48 6 -87 -13 -87 -15 0 -21 15 -31 83 -6 43 -4 47 14 47 15 0 22 -10 30
-43z m163 -76 c-6 -11 -36 -33 -66 -49 l-55 -30 0 42 c0 48 10 60 80 100 l45
26 3 -35 c2 -19 -2 -43 -7 -54z m-2538 -19 c-31 -27 -39 -30 -41 -17 -7 31 8
60 40 81 l33 21 3 -26 c3 -20 -5 -34 -35 -59z m1550 8 c-10 -10 -30 -20 -45
-24 -42 -10 -38 28 5 53 17 11 37 24 42 29 6 6 11 0 13 -16 2 -15 -4 -32 -15
-42z m-2463 -45 c-11 -12 -41 -37 -65 -54 -45 -32 -45 -32 -46 -9 -4 73 7 96
60 123 27 13 53 30 58 37 5 8 9 -3 11 -31 3 -33 -2 -49 -18 -66z m960 5 c0
-37 -58 -109 -71 -88 -17 26 -8 51 27 84 19 19 37 34 40 34 2 0 4 -13 4 -30z
m-114 -27 c6 -39 33 -129 58 -198 14 -40 77 -150 96 -169 6 -6 10 -13 10 -17
0 -10 -540 -549 -549 -549 -11 1 -51 38 -51 48 0 5 -20 32 -44 58 -24 27 -47
60 -51 74 -4 14 -20 41 -35 60 -15 19 -30 45 -34 57 -4 12 -17 37 -30 56 -13
18 -26 50 -30 69 -4 20 -18 52 -31 72 -14 20 -25 50 -25 67 0 16 -7 46 -15 66
-8 19 -15 49 -15 65 0 16 -7 45 -16 66 -8 20 -17 60 -18 87 -2 28 -6 67 -11
88 l-8 37 396 0 396 0 7 -37z m2439 -3 c4 -21 3 -45 -2 -52 -4 -7 -11 -40 -15
-73 -11 -97 -32 -191 -45 -206 -7 -8 -17 -36 -23 -63 -6 -26 -17 -57 -24 -69
-8 -12 -20 -42 -26 -67 -7 -24 -22 -56 -34 -71 -12 -14 -29 -42 -36 -60 -8
-19 -24 -47 -37 -63 -13 -15 -30 -44 -38 -63 -8 -19 -25 -43 -38 -53 -13 -10
-32 -34 -42 -54 -11 -20 -26 -36 -35 -36 -23 0 -565 546 -551 555 7 4 17 17
22 28 6 12 26 49 45 82 54 95 65 127 86 238 l13 67 386 0 387 0 7 -40z m-805
9 c0 -5 -11 -21 -25 -34 -29 -29 -91 -36 -81 -9 3 9 6 18 6 20 0 3 19 13 42
24 42 18 58 18 58 -1z m975 -44 c-8 -52 -24 -67 -98 -89 l-47 -14 0 28 c0 15
8 37 18 49 16 19 123 81 130 75 2 -1 0 -23 -3 -49z m-3425 -28 c0 -40 -5 -48
-54 -95 -29 -28 -56 -48 -60 -45 -8 8 -8 77 0 98 7 17 92 84 107 85 4 0 7 -19
7 -43z m950 -7 c0 -32 -52 -101 -66 -87 -18 18 -7 71 20 94 36 31 46 29 46 -7z
m1480 -5 c0 -21 -28 -56 -49 -61 -82 -17 -77 -19 -59 21 6 15 24 29 42 34 35
10 66 13 66 6z m-1450 -82 c0 -27 -35 -93 -50 -93 -4 0 -11 12 -14 26 -5 20 0
36 20 65 29 42 44 43 44 2z m2436 0 c-3 -10 -8 -29 -11 -43 -8 -32 -35 -49
-102 -65 -53 -12 -53 -12 -53 12 0 32 48 77 103 96 57 21 69 21 63 0z m-3396
-71 c0 -37 -6 -48 -46 -88 -50 -51 -61 -49 -71 9 -5 34 -2 40 48 90 59 59 69
57 69 -11z m2366 39 c-17 -33 -34 -41 -82 -41 -32 0 -33 1 -22 25 8 17 23 27
52 34 67 15 68 14 52 -18z m-1366 -41 c8 -16 6 -31 -10 -68 -20 -44 -22 -46
-36 -28 -19 27 -18 53 7 87 24 34 25 35 39 9z m1330 -32 c0 -25 -34 -48 -71
-48 -41 0 -53 9 -43 34 7 17 24 23 77 25 22 1 37 -4 37 -11z m-1270 -73 c0
-12 -5 -36 -11 -54 -11 -31 -12 -31 -30 -15 -24 21 -24 57 -2 95 16 27 19 28
30 12 7 -9 13 -27 13 -38z m2285 -19 c-23 -35 -53 -52 -107 -59 -45 -6 -48 -5
-48 16 1 40 32 66 100 85 61 17 65 17 68 0 2 -9 -4 -28 -13 -42z m-3303 -41
c-5 -11 -27 -44 -48 -72 l-38 -52 -13 31 c-24 57 -11 97 52 151 l30 26 13 -31
c9 -22 11 -38 4 -53z m2226 57 c10 -7 8 -12 -5 -24 -32 -27 -42 -29 -83 -17
-38 12 -39 13 -24 31 18 19 87 25 112 10z m-1154 -38 c8 -21 6 -74 -3 -98 -7
-17 -9 -17 -30 9 -12 16 -19 35 -16 43 3 8 8 25 11 38 7 27 29 32 38 8z m1065
-38 c26 -9 30 -14 20 -23 -20 -16 -39 -18 -81 -10 -41 9 -48 20 -20 36 22 13
39 13 81 -3z m-1127 -61 c41 -47 5 -47 -62 -1 -50 35 -50 35 -28 50 20 15 24
14 48 -7 14 -12 33 -31 42 -42z m1206 24 c-54 -94 -61 -100 -81 -67 -8 12 -1
25 34 59 45 45 71 49 47 8z m-1080 19 c7 -7 12 -37 12 -67 l0 -54 -25 23 c-25
24 -30 46 -19 88 7 25 15 27 32 10z m2131 -41 c-5 -21 -20 -44 -33 -52 -23
-16 -146 -33 -146 -21 0 42 74 96 133 96 12 0 29 4 37 10 20 12 21 9 9 -33z
m-979 -26 c0 -21 -13 -46 -57 -110 -6 -8 -43 32 -43 46 0 8 16 35 35 60 19 25
35 51 35 56 0 6 7 2 15 -9 8 -10 15 -30 15 -43z m-2244 15 c9 -49 -2 -85 -40
-133 l-33 -42 -16 35 c-10 19 -17 43 -17 53 0 21 75 121 90 121 5 0 12 -15 16
-34z m2013 13 c34 -12 37 -19 19 -37 -18 -18 -62 -14 -87 7 -41 36 0 54 68 30z
m-836 -23 c12 -30 19 -106 10 -106 -18 0 -43 25 -44 45 -5 53 1 84 15 79 8 -3
17 -11 19 -18z m-283 -8 c15 -13 36 -28 46 -34 17 -10 17 -12 -9 -29 -31 -20
-60 -13 -112 29 -25 20 -28 26 -16 40 19 23 58 20 91 -6z m1040 -24 c33 -13
38 -19 29 -30 -17 -20 -57 -17 -96 7 -26 16 -31 24 -21 30 20 13 43 11 88 -7z
m-896 -13 c10 -11 37 -29 61 -40 24 -11 46 -25 50 -31 3 -5 13 -10 21 -10 8 0
39 -11 67 -24 46 -21 86 -32 180 -51 l27 -5 0 -390 0 -389 -37 -3 c-21 -2 -49
3 -63 9 -14 7 -47 13 -75 13 -27 1 -61 7 -75 15 -14 8 -42 14 -63 15 -21 0
-50 6 -65 14 -15 8 -45 18 -66 22 -22 4 -54 17 -73 30 -19 12 -48 26 -66 29
-18 4 -45 17 -62 29 -16 13 -45 28 -63 34 -19 6 -47 23 -63 36 -16 14 -44 30
-63 37 -19 7 -40 22 -46 34 -7 13 -30 32 -52 45 -22 12 -42 28 -45 36 -3 9 96
115 268 289 151 150 277 274 280 275 3 0 14 -9 23 -19z m220 -3 c8 -13 18 -41
22 -62 5 -32 4 -37 -7 -31 -37 21 -49 40 -49 77 0 43 13 49 34 16z m1333 -556
c-12 -13 -38 -32 -58 -43 -20 -10 -48 -32 -62 -49 -14 -16 -35 -30 -46 -30
-12 0 -38 -15 -58 -34 -21 -18 -50 -36 -64 -39 -14 -4 -42 -18 -63 -32 -20
-14 -47 -25 -59 -25 -13 0 -44 -13 -70 -30 -28 -17 -61 -30 -80 -30 -18 0 -45
-7 -61 -15 -15 -8 -46 -15 -68 -15 -22 0 -49 -5 -61 -12 -12 -7 -53 -16 -92
-20 -38 -4 -79 -8 -90 -10 -20 -3 -20 3 -22 387 l-2 390 76 19 c83 20 246 88
278 115 11 10 31 24 45 33 l25 16 277 -276 277 -276 -22 -24z m-282 554 c19
-28 12 -48 -36 -104 l-28 -32 -16 24 c-17 26 -13 43 23 99 29 44 36 45 57 13z
m-1478 -33 c49 -34 53 -38 37 -50 -32 -23 -67 -12 -144 45 -5 4 38 42 48 42 3
0 30 -17 59 -37z m1015 7 c28 -25 31 -31 18 -40 -26 -17 -48 -11 -86 22 -32
28 -34 33 -18 39 35 14 54 9 86 -21z m-503 10 c10 -5 21 -22 24 -37 3 -15 9
-36 12 -45 5 -12 2 -18 -8 -18 -26 0 -55 34 -61 73 -7 39 0 45 33 27z m408
-36 c43 -33 42 -44 -6 -44 -32 0 -44 5 -60 29 -34 48 9 58 66 15z m-1692 -14
c22 -42 19 -59 -22 -123 -41 -66 -53 -64 -61 12 -4 44 -1 54 28 95 19 25 35
46 36 46 2 0 10 -13 19 -30z m1405 -17 l19 -43 -23 0 c-27 0 -51 25 -60 63 -6
26 -5 28 19 25 20 -2 31 -13 45 -45z m920 -11 c0 -8 -11 -30 -25 -48 -14 -18
-25 -37 -25 -43 0 -15 -23 -14 -38 1 -18 18 -15 35 21 94 32 53 32 53 50 33 9
-12 17 -28 17 -37z m-825 11 c26 -40 21 -59 -13 -48 -18 5 -62 61 -62 79 0 3
11 6 25 6 17 0 32 -11 50 -37z m100 5 c20 -24 23 -33 13 -39 -22 -14 -33 -10
-66 22 -40 39 -40 49 -3 49 20 0 37 -9 56 -32z m1510 12 c-4 -11 -18 -32 -31
-45 -21 -21 -34 -25 -89 -25 -36 0 -65 2 -65 5 0 4 7 19 15 35 11 22 25 31 53
35 20 4 44 8 52 10 8 1 28 3 43 4 24 1 27 -2 22 -19z m-2401 -37 c25 -16 46
-31 46 -35 0 -4 -11 -15 -24 -23 -22 -15 -27 -15 -53 -1 -52 28 -76 53 -70 70
9 24 50 19 101 -11z m1686 -57 c0 -6 -15 -35 -34 -64 l-34 -53 -20 26 c-24 30
-20 46 20 93 15 18 28 38 28 45 1 15 40 -31 40 -47z m-1761 -6 c24 -17 49 -30
55 -30 6 -1 0 -10 -13 -20 -28 -24 -64 -26 -82 -4 -7 8 -26 22 -43 31 l-30 16
23 18 c31 25 38 24 90 -11z m908 -5 c-2 -5 -23 -13 -48 -17 -24 -4 -54 -10
-66 -13 -18 -4 -23 -1 -23 14 0 22 18 27 92 26 27 0 46 -4 45 -10z m-1473 -17
c23 -33 19 -76 -13 -138 l-29 -54 -21 34 c-11 19 -21 43 -21 52 0 21 51 128
62 128 4 0 14 -10 22 -22z m2396 -41 c0 -11 -13 -34 -29 -52 -16 -18 -31 -39
-33 -47 -4 -11 -8 -11 -21 1 -25 20 -20 57 14 107 30 44 32 45 50 28 10 -9 19
-26 19 -37z m580 39 c0 -21 -40 -66 -68 -77 -14 -6 -50 -7 -79 -3 -49 6 -53 8
-47 28 15 51 39 62 142 65 38 1 52 -3 52 -13z m-2474 -48 c24 -17 44 -35 44
-40 0 -5 -12 -13 -26 -18 -27 -11 -54 0 -104 39 -20 16 -22 21 -11 35 20 24
48 19 97 -16z m970 -34 c-3 -9 -20 -14 -46 -14 -23 0 -50 -5 -62 -11 -25 -14
-32 -7 -24 26 7 27 25 37 91 51 37 8 40 7 43 -14 2 -13 1 -30 -2 -38z m976 4
c16 -29 12 -45 -18 -85 -13 -17 -24 -36 -24 -42 0 -19 -19 -12 -36 14 -15 23
-14 27 18 79 18 31 36 56 40 56 4 0 13 -10 20 -22z m-2005 -41 c42 -32 42 -32
22 -49 -12 -10 -28 -18 -36 -18 -17 0 -103 59 -103 71 0 14 45 39 60 34 8 -4
34 -20 57 -38z m-353 -16 c18 -32 18 -33 -5 -102 -13 -38 -27 -69 -31 -69 -13
0 -48 63 -48 85 0 11 9 37 20 58 11 20 20 44 20 53 0 24 23 11 44 -25z m1386
-10 c0 -32 -17 -51 -45 -49 -11 1 -37 -2 -57 -6 -33 -6 -38 -4 -38 11 0 32 16
44 71 58 30 7 57 13 62 14 4 1 7 -12 7 -28z m1038 4 c17 -37 15 -46 -18 -99
-30 -47 -32 -48 -50 -31 -28 25 -25 55 10 95 16 19 29 41 30 48 0 21 16 13 28
-13z m379 11 c8 -7 -9 -32 -35 -51 -22 -16 -40 -19 -92 -17 -35 1 -68 6 -73
11 -6 6 2 22 22 42 32 31 33 32 104 25 39 -4 72 -8 74 -10z m-2533 -48 c28
-17 53 -33 55 -35 2 -1 -1 -9 -8 -17 -23 -28 -49 -24 -101 12 l-52 36 22 18
c12 10 25 18 28 18 3 0 28 -14 56 -32z m2211 -83 c-63 -81 -103 -67 -47 17 36
54 38 56 56 38 18 -18 18 -19 -9 -55z m-2375 -25 c0 -45 -24 -130 -37 -130
-16 0 -53 58 -53 82 0 10 10 43 21 75 l22 57 23 -30 c13 -16 24 -40 24 -54z
m98 38 c26 -18 49 -34 52 -36 3 -2 -3 -10 -13 -17 -16 -11 -23 -10 -52 8 -28
18 -55 54 -55 72 0 13 26 2 68 -27z m1182 2 c0 -33 -28 -51 -73 -48 -12 1 -32
-2 -44 -6 -18 -6 -23 -4 -23 11 0 31 22 52 65 62 69 16 75 14 75 -19z m1268 4
c59 -8 66 -22 26 -53 -31 -24 -79 -27 -143 -8 l-43 13 32 27 c34 29 45 30 128
21z m-1268 -98 c0 -39 -7 -43 -88 -51 -46 -5 -52 -3 -52 14 0 10 7 25 16 32
14 11 75 31 117 38 4 0 7 -14 7 -33z m-1195 -8 c24 -29 26 -37 20 -82 -3 -28
-9 -61 -12 -73 -5 -21 -6 -21 -30 -6 -38 25 -46 58 -32 130 7 35 16 63 20 63
4 0 19 -14 34 -32z m2414 -24 c8 -7 -25 -38 -56 -50 -28 -12 -39 -11 -92 8
-59 21 -60 22 -43 41 28 31 52 35 122 19 36 -8 67 -16 69 -18z m-2305 -63 c10
-9 22 -26 27 -39 10 -25 0 -142 -11 -142 -5 0 -22 13 -39 29 -28 26 -32 36
-30 78 4 104 9 111 53 74z m1086 -1 c0 -35 -16 -45 -87 -53 -46 -5 -53 -4 -53
12 0 30 24 51 70 60 69 14 70 13 70 -19z m1035 -16 c22 -9 48 -16 58 -15 36 0
5 -39 -46 -58 -24 -10 -38 -7 -88 15 -32 15 -59 30 -59 35 0 12 51 38 75 38
11 0 38 -7 60 -15z m-1996 -73 c29 -27 31 -33 31 -101 0 -69 -1 -71 -22 -65
-36 10 -68 52 -68 88 0 47 12 107 20 107 4 0 22 -13 39 -29z m957 -36 c-3 -8
-26 -17 -53 -20 -26 -4 -56 -9 -65 -12 -13 -3 -18 1 -18 14 0 34 24 54 80 66
54 12 55 12 58 -11 2 -13 1 -30 -2 -37z m924 18 c39 -15 70 -30 70 -33 0 -12
-62 -41 -88 -42 -15 -1 -51 11 -80 26 l-53 27 23 18 c19 15 37 25 56 30 1 1
34 -11 72 -26z m-1757 -53 c17 -13 27 -34 31 -60 3 -22 9 -58 12 -81 l6 -41
-29 15 c-54 28 -68 53 -69 123 -2 71 6 78 49 44z m837 -29 c0 -38 -14 -48 -82
-56 -53 -7 -58 -6 -58 11 0 32 15 45 66 59 70 19 74 18 74 -14z m798 -1 c28
-17 52 -35 52 -40 0 -17 -52 -32 -91 -27 -20 3 -55 18 -78 35 l-42 31 28 15
c42 23 72 19 131 -14z m-1483 -40 c10 0 49 -149 42 -157 -10 -9 -85 30 -95 50
-6 12 -12 47 -14 79 l-3 56 34 -14 c18 -8 35 -14 36 -14z m1362 -37 l56 -38
-41 -18 c-53 -22 -79 -16 -137 35 -52 46 -48 58 23 58 32 0 55 -9 99 -37z
m-1245 -5 c22 -8 31 -23 51 -86 14 -43 24 -78 23 -79 -1 -1 -19 3 -40 9 -47
15 -65 41 -81 117 -13 65 -16 63 47 39z m566 -34 c-2 -2 -30 -5 -63 -6 -39 -2
-59 1 -62 9 -5 14 21 26 82 39 37 8 40 7 43 -14 2 -13 2 -26 0 -28z m475 24
c31 -16 97 -70 97 -78 0 -14 -60 -32 -85 -26 -15 4 -47 26 -72 49 l-45 42 28
12 c37 15 50 16 77 1z m-875 -42 c7 -7 24 -39 37 -72 23 -56 23 -59 6 -62 -11
-2 -34 3 -53 11 -30 13 -37 22 -51 74 -10 33 -17 63 -17 67 0 11 63 -4 78 -18z
m782 -39 c25 -23 46 -44 48 -48 6 -14 -65 -30 -90 -20 -24 9 -98 86 -98 102 0
11 40 18 70 12 13 -2 45 -23 70 -46z m-635 13 c8 -7 15 -17 15 -23 0 -5 13
-32 30 -58 l30 -49 -36 0 c-50 0 -89 31 -108 87 -23 68 -22 72 19 63 20 -4 42
-14 50 -20z m482 -37 c56 -60 56 -73 -2 -72 -44 0 -71 18 -104 71 -32 50 -29
56 24 57 23 1 40 -10 82 -56z m-354 36 c14 -6 41 -39 61 -73 l36 -61 -29 -3
c-40 -4 -90 23 -102 56 -6 15 -17 40 -25 56 -8 16 -14 31 -14 33 0 7 51 2 73
-8z m203 -57 c29 -31 50 -60 47 -64 -2 -5 -23 -8 -47 -8 -47 0 -79 26 -111 89
-14 28 -15 35 -3 42 25 17 63 -2 114 -59z"/>
<path d="M2748 4624 c-61 -21 -322 -154 -345 -176 -30 -28 -29 -41 5 -91 101
-149 150 -268 137 -328 -9 -39 3 -69 26 -69 70 0 39 223 -47 336 -19 25 -37
57 -40 72 -7 36 28 82 62 82 27 0 31 -12 9 -30 -23 -19 -18 -65 10 -98 14 -17
25 -35 25 -41 0 -18 41 -33 71 -27 26 5 29 3 29 -19 0 -21 5 -25 29 -25 35 0
50 -17 24 -27 -50 -17 -71 -66 -33 -78 14 -4 30 2 51 19 36 30 69 34 69 8 0
-23 -28 -62 -44 -62 -7 0 -23 -11 -35 -24 l-23 -25 25 -25 c31 -30 39 -32 73
-9 35 23 64 84 64 136 0 36 5 48 25 61 13 9 31 16 38 16 21 0 50 37 44 55 -5
11 -21 15 -57 15 l-50 0 0 40 c0 22 -4 40 -10 40 -6 0 -10 38 -10 93 0 51 -5
98 -10 103 -11 11 -143 -28 -165 -47 -11 -11 -35 -12 -35 -1 0 11 79 50 126
62 52 13 82 43 64 65 -14 17 -51 17 -102 -1z m42 -158 c0 -10 -170 -89 -177
-82 -13 13 54 63 100 73 46 12 77 15 77 9z m-5 -82 c-38 -29 -97 -55 -118 -52
-18 2 -11 9 33 35 59 34 124 47 85 17z m35 -59 c-6 -8 -19 -11 -27 -8 -14 5
-14 8 2 19 22 16 40 8 25 -11z m25 -64 c-3 -6 -14 -11 -23 -11 -15 1 -15 2 2
15 21 16 32 13 21 -4z"/>
<path d="M3683 4555 c-41 -35 -96 -47 -118 -26 -12 10 -100 -10 -117 -27 -12
-12 -34 -124 -43 -222 -4 -30 -11 -71 -17 -92 -14 -47 -5 -79 32 -122 22 -25
42 -36 73 -41 23 -4 61 -15 84 -26 63 -28 111 -25 161 12 36 26 42 36 42 66 0
21 9 46 23 64 12 16 32 42 44 57 26 35 53 106 53 145 0 38 -86 127 -123 127
-38 0 -62 38 -46 74 21 45 -2 51 -48 11z m-43 -111 c46 -6 130 -43 130 -56 0
-5 6 -8 13 -8 17 0 59 -44 51 -53 -10 -10 -107 4 -131 19 -11 7 -47 18 -80 23
-108 17 -143 41 -104 70 22 17 34 17 121 5z m-57 -148 c12 -8 58 -20 102 -26
44 -7 86 -14 93 -16 16 -4 15 -25 -1 -48 -13 -17 -16 -17 -78 8 -39 15 -85 26
-114 26 -63 0 -132 40 -108 63 12 12 83 7 106 -7z m26 -131 c52 -8 100 -15
107 -15 26 0 27 -46 3 -74 -33 -38 -78 -34 -177 14 -77 37 -82 41 -82 71 0 29
2 31 28 25 15 -3 69 -13 121 -21z"/>
<path d="M1853 3938 c-5 -7 -15 -31 -22 -53 -8 -22 -27 -55 -42 -73 -16 -18
-29 -42 -29 -53 0 -11 -7 -49 -16 -84 -13 -52 -14 -68 -4 -80 18 -22 49 -18
59 8 5 12 16 38 25 57 l16 35 -6 -52 c-5 -45 -3 -53 16 -63 12 -6 33 -10 48
-9 15 1 35 -2 45 -6 9 -4 25 -4 35 0 9 3 19 5 21 3 2 -2 7 7 12 20 11 30 25
28 34 -5 6 -26 21 -42 37 -43 4 0 20 26 35 58 16 32 39 72 51 89 12 17 22 38
22 47 0 8 5 27 12 41 14 31 0 50 -31 40 -17 -5 -70 -99 -94 -167 -7 -19 -27
-25 -27 -8 0 5 14 36 31 69 17 33 33 79 36 103 5 41 3 46 -41 86 -25 23 -50
42 -56 42 -24 0 -49 -22 -73 -63 -33 -56 -54 -74 -69 -59 -9 9 -7 16 5 30 9 9
19 37 23 60 6 40 5 42 -18 42 -14 0 -30 -6 -35 -12z m157 -88 c0 -11 -4 -20
-10 -20 -5 0 -10 9 -10 20 0 11 5 20 10 20 6 0 10 -9 10 -20z m-2 -155 c-32
-69 -33 -70 -36 -35 -2 19 -13 47 -23 62 -25 34 -17 49 19 42 16 -3 35 1 47
10 32 23 30 -1 -7 -79z m-161 18 c-3 -10 -5 -4 -5 12 0 17 2 24 5 18 2 -7 2
-21 0 -30z m73 -63 c0 -11 -4 -20 -9 -20 -5 0 -11 9 -14 20 -3 13 0 20 9 20 8
0 14 -9 14 -20z"/>
<path d="M2258 3774 c-16 -8 -28 -20 -28 -27 1 -23 28 -47 54 -47 21 0 26 -5
26 -24 0 -46 -18 -76 -45 -76 -28 0 -32 12 -11 33 18 18 3 37 -30 37 -28 0
-48 -24 -41 -51 8 -29 -2 -49 -22 -49 -17 0 -55 -68 -56 -100 0 -12 -14 -14
-80 -11 -50 2 -86 8 -96 17 -8 8 -27 14 -41 14 -22 0 -29 -8 -43 -43 -15 -40
-15 -47 -1 -80 8 -21 22 -37 30 -37 31 0 46 13 46 40 0 25 5 29 38 35 50 8 81
-5 127 -54 45 -48 80 -54 96 -17 8 17 8 33 1 54 -8 25 -8 32 5 36 12 5 14 16
9 51 -6 34 -4 45 6 46 7 1 28 3 46 5 36 3 93 41 119 81 30 46 21 89 -31 139
-26 24 -47 44 -49 44 -1 -1 -14 -8 -29 -16z"/>
<path d="M1717 3533 c-4 -3 -7 -13 -7 -21 0 -9 -7 -23 -16 -33 -15 -16 -14
-21 7 -58 39 -70 69 -51 84 52 6 39 4 47 -13 56 -23 12 -46 14 -55 4z"/>
<path d="M4330 3985 c-12 -14 8 -76 29 -89 6 -4 11 -16 11 -27 0 -14 -7 -19
-29 -19 -22 0 -37 11 -66 45 l-37 45 -29 -17 c-74 -44 -101 -102 -65 -142 29
-32 20 -47 -37 -60 -30 -6 -72 -9 -95 -5 -38 6 -42 4 -54 -21 -12 -26 -10 -30
22 -56 37 -31 83 -38 109 -16 9 7 36 22 61 32 25 10 49 23 55 27 5 5 10 41 10
81 0 65 2 72 20 75 14 2 33 -10 53 -33 35 -38 53 -43 72 -21 6 8 27 20 46 26
30 10 34 16 34 44 0 30 -19 64 -57 104 -7 7 -13 17 -13 22 0 15 -28 19 -40 5z"/>
<path d="M4454 3743 c-9 -16 -26 -34 -36 -41 -22 -16 -23 -29 -3 -48 19 -20
20 -64 1 -64 -23 0 -66 59 -66 90 0 27 -22 55 -38 48 -4 -1 -28 -25 -52 -51
-32 -36 -45 -59 -50 -90 l-5 -42 -52 0 c-72 0 -80 -10 -66 -88 12 -70 56 -147
85 -147 10 0 25 14 34 33 9 17 25 38 35 45 10 7 19 24 21 39 5 44 22 36 43
-19 24 -62 48 -74 119 -64 65 10 78 38 42 91 -26 38 -33 79 -17 104 10 16 35
5 70 -33 47 -50 127 -20 116 42 -6 36 -19 74 -40 117 -8 17 -21 47 -29 68 -14
34 -18 37 -54 37 -32 0 -43 -5 -58 -27z m86 -73 c10 0 16 -18 26 -72 5 -34 4
-38 -14 -38 -12 0 -29 13 -42 34 -11 19 -26 36 -33 39 -8 3 -6 11 7 26 11 12
26 19 34 16 7 -3 17 -5 22 -5z m-205 -70 c9 -15 -14 -40 -37 -40 -23 0 -36 29
-17 41 19 12 46 11 54 -1z m55 -112 c22 -24 30 -41 28 -63 -5 -49 -38 -45 -70
10 -32 52 -33 56 -16 73 18 18 24 15 58 -20z m-175 -28 c-23 -25 -68 -23 -73
3 -3 14 4 17 44 17 47 0 47 0 29 -20z"/>
<path d="M3144 3683 c-8 -21 -34 -99 -56 -173 -22 -74 -45 -143 -50 -152 -8
-16 -29 -18 -219 -18 -122 0 -208 -4 -205 -9 3 -5 64 -50 135 -100 70 -49 144
-104 164 -122 l35 -31 -28 -87 c-76 -228 -98 -301 -87 -294 7 3 73 49 147 101
74 53 146 103 160 113 25 17 27 17 70 -12 25 -17 54 -39 65 -49 28 -26 219
-160 222 -156 2 2 -25 90 -60 195 l-64 191 141 106 c77 57 155 116 171 129
l30 24 -211 0 -211 1 -63 190 c-35 105 -65 190 -66 190 -2 0 -11 -17 -20 -37z"/>
<path d="M2113 2998 c-13 -6 -24 -24 -28 -47 -3 -20 -13 -46 -21 -59 -13 -20
-22 -22 -86 -20 -58 2 -73 -1 -82 -15 -15 -23 1 -36 53 -45 l42 -7 -47 -48
-48 -47 -15 27 c-30 58 -81 111 -101 106 -24 -6 -27 -45 -4 -64 24 -20 54 -85
54 -117 0 -16 -9 -37 -20 -47 -23 -20 -28 -75 -7 -75 7 0 23 14 35 30 13 17
31 30 41 30 20 0 81 -65 81 -87 0 -18 -35 -17 -50 2 -18 22 -43 18 -70 -9 -22
-24 -22 -27 -7 -63 14 -37 16 -38 73 -41 35 -2 66 -9 76 -19 17 -15 48 -12 48
5 0 5 -9 19 -20 32 -24 27 -25 40 -6 40 8 0 36 -25 62 -55 48 -55 70 -65 92
-43 23 23 12 48 -30 74 -70 44 -109 94 -73 94 8 0 15 -4 15 -8 0 -14 58 -42
74 -36 18 7 21 20 6 29 -5 3 -10 12 -9 18 0 7 7 2 16 -10 21 -31 57 -29 79 5
9 15 30 39 46 54 24 23 27 30 18 53 -17 44 -11 50 20 20 24 -23 32 -26 45 -15
20 17 19 23 -10 58 -24 29 -24 29 -5 47 44 40 11 82 -40 52 -26 -16 -29 -16
-53 3 -14 11 -32 17 -41 14 -18 -7 -21 -30 -6 -39 6 -3 10 -10 10 -16 0 -13
-34 -11 -47 2 -18 18 -94 -7 -133 -42 l-32 -29 27 -32 c29 -34 18 -53 -14 -24
-15 14 -20 14 -29 3 -9 -10 -8 -18 3 -33 17 -22 19 -34 6 -34 -5 0 -23 19 -40
42 l-31 41 48 51 c26 28 54 60 62 71 8 11 37 26 65 33 78 21 100 34 103 65 4
31 -8 34 -42 11 -37 -23 -39 -2 -6 59 25 47 27 56 14 61 -21 8 -35 7 -61 -6z
m73 -289 c3 -6 1 -16 -5 -22 -9 -9 -14 -8 -21 3 -5 8 -10 18 -10 23 0 11 28 8
36 -4z m-46 -50 c0 -12 -27 -11 -35 1 -11 17 5 32 21 19 8 -6 14 -15 14 -20z
m118 -26 c6 -19 -25 -16 -32 3 -4 11 -1 14 11 12 9 -2 18 -9 21 -15z m-48 -43
c0 -5 -7 -10 -15 -10 -8 0 -15 5 -15 10 0 6 7 10 15 10 8 0 15 -4 15 -10z"/>
<path d="M1692 2718 c-18 -18 -15 -32 11 -56 38 -36 87 -25 87 18 0 9 -62 50
-77 50 -5 0 -14 -5 -21 -12z"/>
<path d="M4213 2999 c-19 -7 -23 -16 -23 -52 0 -35 7 -51 35 -84 45 -53 48
-93 7 -93 -15 0 -43 11 -62 25 -19 14 -42 25 -52 25 -10 0 -27 6 -38 12 -16
10 -23 10 -36 -4 -22 -21 -12 -63 21 -84 32 -21 120 -44 173 -45 38 -1 43 -4
40 -22 -3 -19 -11 -21 -85 -23 -84 -3 -111 -11 -150 -47 -23 -20 -32 -80 -15
-91 4 -2 44 13 89 35 65 31 101 41 180 51 102 12 123 20 123 46 0 16 -57 72
-72 72 -5 0 -8 8 -8 18 0 9 -11 36 -25 60 -28 50 -55 133 -55 173 0 31 -15 40
-47 28z"/>
<path d="M4425 2832 c-41 -73 -11 -97 54 -43 32 26 33 29 20 56 -22 44 -45 40
-74 -13z"/>
<path d="M4556 2868 c-3 -7 -7 -42 -10 -77 -5 -51 -13 -75 -42 -118 -20 -30
-60 -106 -90 -169 -56 -118 -59 -141 -22 -172 19 -15 35 2 76 84 120 241 169
405 132 449 -15 18 -39 20 -44 3z"/>
<path d="M4271 2503 c-8 -29 -7 -42 5 -60 23 -35 54 -15 54 35 0 67 -43 85
-59 25z"/>
<path d="M2680 2330 c-8 -6 -40 -21 -70 -34 -67 -29 -190 -130 -190 -156 0
-10 -11 -32 -26 -49 -24 -29 -24 -31 -9 -55 17 -26 38 -36 126 -60 31 -9 67
-25 80 -35 l24 -20 -29 -53 c-16 -29 -36 -61 -44 -71 -14 -16 -14 -20 4 -44
11 -15 24 -28 30 -30 5 -2 31 43 58 99 45 96 47 106 38 143 -13 50 0 74 63
110 46 27 57 48 30 59 -25 9 -61 -11 -106 -58 -44 -49 -69 -58 -69 -27 0 11
28 42 68 74 99 83 103 87 97 97 -4 6 -18 10 -32 10 -19 0 -46 -19 -97 -68 -83
-81 -114 -100 -122 -78 -9 22 24 82 66 119 22 21 65 44 106 57 76 25 87 35 73
62 -10 19 -44 23 -69 8z"/>
<path d="M2876 2196 c-14 -24 -32 -71 -40 -103 -18 -76 -43 -143 -60 -163 -23
-26 -46 -78 -46 -103 0 -13 -8 -31 -19 -41 -13 -12 -17 -26 -14 -54 2 -20 8
-41 12 -45 18 -18 50 14 63 61 12 40 17 47 38 47 22 0 25 -5 28 -45 2 -27 9
-50 19 -57 23 -18 33 -16 33 6 0 10 13 45 30 77 33 66 30 76 -30 91 -30 8 -35
14 -38 42 -2 18 4 43 13 57 12 19 24 24 59 24 28 0 52 7 66 18 l23 19 -21 21
c-14 14 -34 22 -56 22 -46 0 -51 11 -21 51 13 19 32 45 41 58 22 28 9 55 -28
59 -21 3 -30 -5 -52 -42z"/>
<path d="M3714 2336 c-3 -9 0 -35 7 -58 11 -33 20 -44 38 -46 20 -3 23 0 18
20 -3 12 -10 39 -14 58 -9 37 -39 53 -49 26z"/>
<path d="M3638 2313 c-14 -14 -24 -14 -71 -5 -89 18 -154 -9 -200 -80 -37 -59
-6 -87 46 -41 41 36 140 63 165 45 35 -25 63 -35 71 -26 13 13 25 124 14 124
-5 0 -16 -7 -25 -17z"/>
<path d="M3510 2185 c-26 -31 13 -82 44 -56 19 16 21 42 4 59 -16 16 -33 15
-48 -3z"/>
<path d="M3665 2155 c-44 -25 -87 -45 -95 -45 -8 0 -39 -23 -68 -52 l-54 -51
12 -66 c7 -36 16 -75 20 -86 5 -11 14 -37 20 -57 15 -50 47 -88 73 -88 12 0
56 11 97 24 67 22 78 23 102 10 43 -22 51 -18 44 20 -6 31 -2 37 59 94 36 34
65 65 65 70 0 5 -13 28 -28 53 -16 24 -50 78 -75 119 -55 89 -64 100 -80 100
-7 0 -48 -21 -92 -45z m99 -34 c7 -10 -187 -125 -226 -135 -35 -8 -38 11 -6
38 23 20 195 104 215 105 6 1 14 -3 17 -8z m44 -87 c2 -16 -7 -27 -40 -45 -83
-44 -158 -79 -172 -79 -7 0 -19 -7 -26 -15 -17 -21 -30 -19 -30 5 0 12 10 25
23 30 41 18 153 85 182 108 34 27 59 25 63 -4z m50 -101 c-4 -25 -213 -134
-258 -136 -49 -3 -45 21 7 42 22 9 49 24 60 33 26 24 145 75 181 77 8 1 12 -7
10 -16z"/>
<path d="M3396 2124 c-28 -28 -56 -79 -56 -101 0 -24 47 -14 70 15 65 82 54
153 -14 86z"/>
<path d="M1086 4249 c-28 -22 -35 -66 -14 -87 21 -21 85 -15 102 10 22 31 20
45 -9 73 -29 30 -45 31 -79 4z"/>
<path d="M5162 4254 c-26 -18 -30 -65 -6 -88 18 -19 75 -21 92 -4 21 21 15 75
-10 92 -12 9 -29 16 -38 16 -9 0 -26 -7 -38 -16z"/>
<path d="M1072 3838 c-10 -39 -11 -39 -145 -3 -55 15 -103 23 -107 19 -5 -5
-12 -26 -15 -46 -7 -35 -5 -38 16 -39 13 0 65 -13 114 -28 l90 -28 -2 -40 c-1
-34 2 -42 20 -47 41 -11 45 -6 61 62 8 37 22 88 30 115 15 50 15 51 -26 61
-25 6 -28 3 -36 -26z"/>
<path d="M5174 3853 c3 -10 8 -30 12 -46 6 -28 13 -31 88 -41 21 -3 41 -8 45
-11 3 -4 -16 -25 -42 -48 -42 -36 -48 -46 -44 -72 3 -16 6 -38 6 -47 1 -10 5
-18 10 -18 5 0 47 36 93 79 65 61 95 82 133 94 28 8 50 18 49 23 0 5 -4 25 -8
45 l-8 37 -54 -15 c-52 -15 -59 -15 -164 11 -129 31 -123 30 -116 9z"/>
<path d="M5272 3549 c-21 -8 -23 -14 -18 -47 3 -20 8 -62 11 -92 12 -108 13
-111 48 -108 30 3 32 5 29 40 -3 35 -2 37 30 42 41 7 198 26 210 26 11 0 10
77 -1 85 -6 3 -62 0 -126 -7 -128 -13 -135 -11 -135 45 0 29 -10 32 -48 16z"/>
<path d="M740 3545 c0 -1 -4 -26 -10 -54 -15 -78 3 -147 43 -172 67 -40 122
-13 154 76 22 58 49 71 59 29 4 -15 3 -45 -3 -66 -7 -27 -7 -38 1 -38 6 0 21
-3 33 -6 19 -5 23 0 33 37 25 91 -18 189 -83 189 -44 0 -69 -20 -106 -85 -17
-30 -37 -55 -45 -55 -22 0 -28 45 -12 90 10 30 11 42 3 45 -18 5 -67 13 -67
10z"/>
<path d="M5280 3215 l0 -45 161 0 160 0 -3 43 -3 42 -157 3 -158 3 0 -46z"/>
<path d="M828 3193 l-98 -4 0 -44 0 -45 155 0 155 0 0 50 0 50 -57 -2 c-32 -1
-102 -4 -155 -5z"/>
<path d="M5474 3122 c-31 -5 -59 -40 -79 -99 -18 -58 -39 -68 -57 -27 -9 18
-9 36 -1 65 l10 39 -38 0 -39 0 0 -66 c0 -86 20 -130 66 -143 66 -18 97 0 132
81 18 43 30 58 45 58 18 0 19 -5 15 -70 l-5 -70 37 0 c34 0 38 3 44 31 14 73
-2 148 -39 179 -18 15 -65 27 -91 22z"/>
<path d="M935 2984 c-38 -7 -88 -13 -110 -14 -74 -1 -85 -8 -85 -52 l0 -39 58
6 c31 3 77 8 102 11 l45 5 -53 -36 c-30 -20 -61 -43 -70 -50 -10 -8 -28 -22
-40 -32 -21 -17 -23 -24 -17 -66 8 -53 12 -55 106 -37 30 6 81 13 114 15 109
9 115 12 108 48 -3 18 -8 35 -12 39 -3 4 -47 3 -96 -2 -49 -5 -91 -8 -92 -6
-2 2 36 29 85 62 58 37 88 63 86 73 -2 9 -6 33 -9 54 -7 42 -8 43 -120 21z"/>
<path d="M5283 2835 c-27 -19 -40 -42 -48 -81 -3 -16 -11 -55 -19 -86 l-13
-58 36 -6 c20 -3 88 -18 151 -34 63 -15 118 -25 122 -21 3 3 9 23 13 43 7 37
7 37 -37 48 -67 17 -70 19 -66 37 2 14 18 20 69 27 l66 9 10 43 c10 44 10 44
-17 44 -15 0 -51 -5 -80 -10 -52 -10 -54 -9 -79 20 -32 37 -77 47 -108 25z
m61 -81 c10 -4 16 -18 16 -40 0 -32 -2 -34 -35 -34 -40 0 -46 19 -19 58 17 25
16 24 38 16z"/>
<path d="M944 2579 c-17 -5 -46 -23 -63 -41 -50 -51 -54 -126 -11 -211 41 -83
36 -82 132 -45 l85 33 -26 61 -26 61 -33 -14 c-28 -12 -32 -16 -21 -29 15 -18
3 -32 -31 -36 -23 -3 -25 1 -28 44 -3 40 1 52 22 73 23 23 33 26 83 23 47 -3
59 -7 76 -29 10 -15 22 -48 25 -74 5 -46 5 -47 35 -41 17 3 33 8 35 11 3 3 0
28 -6 56 -14 61 -62 133 -102 154 -32 16 -97 18 -146 4z"/>
<path d="M5180 2546 c-5 -13 -22 -62 -39 -109 l-30 -85 52 -21 c29 -12 61 -23
73 -25 12 -2 54 -18 94 -35 40 -17 75 -29 79 -26 5 5 66 159 77 196 7 21 -45
46 -57 27 -5 -7 -9 -16 -9 -19 0 -4 -9 -27 -20 -52 -20 -45 -21 -46 -51 -35
-32 11 -32 15 -3 87 15 37 12 45 -22 55 -18 6 -24 -1 -43 -43 -11 -27 -21 -54
-21 -60 0 -7 -8 -7 -25 1 -30 13 -30 14 -6 83 l19 54 -29 15 c-28 14 -30 14
-39 -8z"/>
<path d="M5077 2287 l-25 -41 87 -82 86 -82 -45 5 c-25 4 -76 13 -115 22 l-70
16 -22 -33 c-13 -18 -23 -37 -23 -42 0 -10 77 -28 180 -41 41 -5 93 -12 115
-15 40 -6 40 -6 63 42 l23 47 -63 66 c-35 36 -87 91 -116 122 l-51 57 -24 -41z"/>
<path d="M1140 2210 c-58 -33 -119 -67 -136 -76 l-32 -17 21 -36 c11 -20 21
-37 22 -38 1 -2 27 11 57 27 l56 30 21 -33 c12 -19 21 -39 21 -44 0 -5 -25
-21 -55 -36 l-55 -27 14 -28 c9 -15 19 -33 24 -40 6 -9 40 5 133 58 68 39 132
73 142 76 16 5 16 8 -5 45 -21 37 -37 47 -51 32 -4 -3 -25 -14 -46 -24 l-40
-17 -19 38 -18 38 48 28 c26 16 48 31 48 35 0 11 -34 69 -40 69 -3 -1 -52 -27
-110 -60z"/>
<path d="M4900 1984 c-12 -19 -21 -36 -19 -38 2 -1 54 -35 114 -76 61 -40 117
-79 125 -86 13 -11 20 -8 48 20 l32 33 -92 63 c-51 35 -95 66 -98 69 -11 13
-70 51 -79 51 -5 0 -19 -16 -31 -36z"/>
<path d="M1350 1890 c-47 -37 -93 -81 -102 -96 -33 -53 -19 -111 40 -167 57
-54 130 -44 209 30 21 19 53 46 71 60 38 30 40 42 8 72 l-23 22 -54 -44 c-113
-91 -151 -106 -179 -72 -23 28 -2 59 84 125 47 36 86 67 86 70 0 3 -12 20 -27
37 l-28 32 -85 -69z"/>
<path d="M4821 1871 l-21 -29 74 -64 c41 -35 75 -66 75 -70 1 -3 -49 9 -109
27 l-110 33 -35 -41 c-19 -22 -35 -43 -34 -46 0 -3 53 -52 117 -108 l117 -102
27 31 27 30 -22 23 c-12 12 -47 44 -77 71 -40 34 -48 45 -30 40 14 -4 65 -19
114 -32 84 -23 90 -23 101 -7 7 10 21 29 32 42 l20 24 -109 101 c-60 56 -115
102 -123 104 -7 2 -22 -10 -34 -27z"/>
<path d="M1665 1620 c-28 -14 -97 -47 -154 -74 l-102 -49 31 -32 32 -33 32 19
32 19 44 -45 c41 -42 43 -45 30 -75 -12 -29 -11 -33 15 -60 16 -17 32 -30 36
-30 4 0 15 21 24 48 17 46 64 159 91 216 20 42 18 49 -23 87 l-38 34 -50 -25z
m9 -121 l-26 -51 -24 23 c-13 12 -21 25 -19 28 5 4 82 47 92 50 1 1 -9 -22
-23 -50z"/>
<path d="M4588 1625 c-16 -13 -28 -27 -28 -30 0 -3 32 -44 70 -91 39 -47 70
-94 70 -104 0 -11 -12 -27 -27 -37 l-26 -17 -86 91 -86 92 -33 -25 -32 -26 42
-51 c74 -92 121 -136 156 -148 29 -10 40 -8 80 13 85 44 113 118 71 188 -25
40 -131 170 -138 170 -4 0 -18 -12 -33 -25z"/>
<path d="M2221 1119 c-6 -18 -11 -37 -11 -43 0 -11 47 -33 88 -41 10 -1 46
-15 80 -29 34 -14 64 -26 66 -26 7 0 30 79 25 84 -2 2 -51 21 -109 41 -58 21
-110 40 -116 42 -7 2 -17 -10 -23 -28z"/>
<path d="M4029 1130 c-8 -5 -26 -11 -40 -14 -42 -8 -156 -54 -177 -71 -3 -2
27 -75 31 -75 1 0 54 20 118 43 l116 42 -14 39 c-16 48 -15 46 -34 36z"/>
<path d="M2639 1096 c-45 -20 -46 -22 -37 -53 8 -30 11 -32 34 -23 14 6 29 10
33 10 5 0 -2 -47 -14 -104 l-23 -104 39 -10 c45 -11 38 -27 77 156 20 93 26
135 18 140 -23 14 -83 8 -127 -12z"/>
<path d="M3531 1067 l-44 -47 23 -25 23 -24 17 22 c10 12 20 20 22 17 3 -3 15
-49 28 -104 l23 -98 35 5 c19 4 36 8 39 10 2 3 -7 53 -21 113 -14 60 -26 125
-28 144 -3 33 -5 35 -38 35 -29 0 -43 -8 -79 -48z"/>
<path d="M2973 1083 c-13 -3 -36 -18 -53 -34 -41 -42 -43 -104 -2 -141 35 -33
63 -41 96 -29 31 13 33 3 5 -33 -23 -30 -63 -34 -95 -11 -26 17 -34 11 -34
-27 0 -33 28 -48 91 -48 57 0 94 23 118 73 24 49 28 147 8 186 -23 45 -82 73
-134 64z m67 -103 c0 -15 -7 -33 -15 -40 -13 -10 -19 -10 -35 5 -26 24 -25 50
2 69 27 20 48 5 48 -34z"/>
<path d="M3335 1083 c-24 -4 -71 -33 -119 -75 -6 -4 0 -18 14 -33 22 -23 25
-24 42 -8 10 9 21 14 24 11 3 -3 8 -53 12 -109 l7 -104 40 3 c22 2 41 5 41 5
4 6 -21 317 -25 316 -3 -1 -19 -4 -36 -6z"/>
</g>
</svg>
